<svg width="24" height="24" viewBox="0 0 24 24" fill="none" xmlns="http://www.w3.org/2000/svg">
<path d="M15.7882 16.0498C15.7882 16.0498 15.6407 16.1568 15.5657 16.2078C14.5179 16.9205 13.315 17.3038 12.0633 17.3038C10.866 17.3038 9.71346 16.9531 8.69856 16.299C8.59697 16.2335 8.33678 16.0486 8.33678 16.0486L8.96023 14.6516C8.96023 14.6516 9.19816 14.8209 9.32082 14.8977C10.1496 15.4167 11.0873 15.6948 12.0633 15.6948C13.0964 15.6948 14.0865 15.3832 14.9502 14.8041C15.0032 14.7685 15.165 14.6525 15.165 14.6525L15.7882 16.0498Z" fill="black"/>
<path fill-rule="evenodd" clip-rule="evenodd" d="M12.0625 2.3125C17.4473 2.3125 21.8125 6.67772 21.8125 12.0625C21.8125 17.4473 17.4473 21.8125 12.0625 21.8125H5.1416C4.51899 21.8123 4.05981 21.2309 4.20312 20.625L4.71289 18.4658C3.21905 16.7527 2.3125 14.514 2.3125 12.0625C2.3125 6.67772 6.67772 2.3125 12.0625 2.3125Z" stroke="black" stroke-width="1.5"/>
</svg>
