<svg width="24" height="24" viewBox="0 0 24 24" fill="none" xmlns="http://www.w3.org/2000/svg">
<path d="M7.5 10C8.05228 10 8.5 10.4477 8.5 11C8.5 11.5523 8.05228 12 7.5 12C6.94772 12 6.5 11.5523 6.5 11C6.5 10.4477 6.94772 10 7.5 10ZM12 10C12.5523 10 13 10.4477 13 11C13 11.5523 12.5523 12 12 12C11.4477 12 11 11.5523 11 11C11 10.4477 11.4477 10 12 10ZM16.5 10C17.0523 10 17.5 10.4477 17.5 11C17.5 11.5523 17.0523 12 16.5 12C15.9477 12 15.5 11.5523 15.5 11C15.5 10.4477 15.9477 10 16.5 10Z" fill="black"/>
<path fill-rule="evenodd" clip-rule="evenodd" d="M4 3C2.89543 3 2 3.89543 2 5V17C2 18.1046 2.89543 19 4 19H10.198L11.6189 20.7863C11.8191 21.0379 12.2013 21.0379 12.4015 20.7863L13.8224 19H20C21.1046 19 22 18.1046 22 17V5C22 3.89543 21.1046 3 20 3H4Z" stroke="black" stroke-width="1.5"/>
</svg>
