<svg width="24" height="24" viewBox="0 0 24 24" fill="none" xmlns="http://www.w3.org/2000/svg">
<path d="M16.0675 2.64999C17.8471 2.64999 19.4171 3.81443 19.9346 5.51718L22.047 13.065C22.1121 13.2793 22.1446 13.5022 22.1446 13.7262C22.1446 14.9819 21.1269 15.9996 19.8712 15.9996H13.4678L14.1251 18.4459C14.3095 19.1419 14.1098 19.884 13.6007 20.3932C12.8115 21.1823 11.5315 21.1821 10.7423 20.3932L6.50008 16.5885V2.64999H16.0675ZM5.00008 15.9996H3.91219C2.81203 15.9996 1.92 15.1076 1.92 14.0074V4.64218C1.92 3.54203 2.81203 2.64999 3.91219 2.64999H5.00008V15.9996Z" fill="black" fill-opacity="0.84"/>
</svg>
