<svg width="24" height="24" viewBox="0 0 24 24" fill="none" xmlns="http://www.w3.org/2000/svg">
<path d="M11.2725 19.8626C11.7689 20.3588 12.5741 20.3589 13.0704 19.8626C13.3905 19.5423 13.5155 19.0757 13.3995 18.638L12.7442 16.1946C12.6837 15.9694 12.7312 15.7283 12.8731 15.5432C13.015 15.3584 13.2348 15.2504 13.4678 15.2503H19.8712C20.7127 15.2503 21.3946 14.5674 21.3946 13.7259C21.3946 13.576 21.3727 13.4269 21.3292 13.2835L21.3243 13.2669L19.2169 5.73465C18.7953 4.34799 17.5168 3.39969 16.0675 3.39969H3.91219C3.22629 3.39969 2.67007 3.956 2.67 4.64188V14.0081C2.67011 14.6939 3.22632 15.2503 3.91219 15.2503H5.84285C6.02766 15.2503 6.20623 15.3183 6.34383 15.4417L11.2432 19.8343C11.2533 19.8433 11.263 19.853 11.2725 19.8626Z" stroke="black" stroke-opacity="0.84" stroke-width="1.5" stroke-linejoin="round"/>
<path d="M6.64588 3.56711V15.4162" stroke="black" stroke-opacity="0.84" stroke-width="1.5"/>
</svg>
