<svg width="24" height="24" viewBox="0 0 24 24" fill="none" xmlns="http://www.w3.org/2000/svg">
<path fill-rule="evenodd" clip-rule="evenodd" d="M11.747 3.71661C11.747 2.90188 10.7606 2.49504 10.1865 3.07306L2.53024 10.7811C1.8197 11.4966 1.82429 12.6527 2.54001 13.3631L10.1914 20.9578C10.7675 21.529 11.747 21.1208 11.747 20.3094V15.6502C12.0754 15.6464 12.3797 15.6446 12.4941 15.6443C16.0446 15.6444 19.1615 17.3111 20.7871 19.782C21.122 20.2864 21.8811 20.0937 21.9463 19.4852C21.9823 19.1552 22.0001 18.823 22 18.491C22 13.353 17.5974 9.09249 11.8554 8.28107C11.8465 8.27981 11.8065 8.27938 11.747 8.27814V3.71661Z" stroke="black" stroke-width="1.5"/>
</svg>
