<svg width="24" height="24" viewBox="0 0 24 24" fill="none" xmlns="http://www.w3.org/2000/svg">
<path fill-rule="evenodd" clip-rule="evenodd" d="M13.2234 4.19119C15.5539 2.61718 18.6838 2.97493 20.5984 5.03494C22.3806 6.95281 22.6335 9.8416 21.0759 11.9461C20.207 13.1201 19.1878 14.4318 18.1355 15.6463C16.5891 17.4308 14.8635 19.0747 13.6013 20.2127L13.4763 20.3553C13.0988 20.7818 12.5789 21.0059 12.0544 21.0183C12.0336 21.0192 12.0128 21.0201 11.9919 21.0203C11.9711 21.0201 11.9503 21.0192 11.9294 21.0183C11.4053 21.0056 10.8857 20.7815 10.5085 20.3553L10.3825 20.2127C9.12038 19.0747 7.39542 17.4306 5.84933 15.6463C4.82582 14.465 3.83126 13.2075 2.97531 12.0789C1.37714 9.97148 1.59594 7.04762 3.38156 5.09646C5.29551 3.00514 8.45215 2.63187 10.8015 4.21853L11.9919 5.02224L13.2234 4.19119Z" fill="black" fill-opacity="0.84"/>
</svg>
