<svg width="24" height="24" viewBox="0 0 24 24" fill="none" xmlns="http://www.w3.org/2000/svg">
<mask id="mask0_1_965" style="mask-type:luminance" maskUnits="userSpaceOnUse" x="0" y="0" width="24" height="24">
<rect width="24" height="24" fill="white"/>
</mask>
<g mask="url(#mask0_1_965)">
<path d="M13.2228 4.69074C15.5534 3.11666 18.6833 3.47542 20.5978 5.53547C22.38 7.45321 22.6335 10.3412 21.0763 12.4456C20.2074 13.6196 19.1881 14.9314 18.1359 16.1458C16.5901 17.9298 14.8648 19.5732 13.6027 20.7112L13.4767 20.8548C13.0972 21.2838 12.5734 21.5087 12.0461 21.5189C12.0281 21.5195 12.0103 21.5197 11.9923 21.5198C11.9741 21.5197 11.9559 21.5195 11.9377 21.5189C11.4107 21.5084 10.8881 21.2833 10.5089 20.8548L10.383 20.7122C9.12075 19.5742 7.39494 17.9302 5.84879 16.1458C4.82547 14.9648 3.83156 13.7078 2.97574 12.5794C1.37743 10.472 1.59535 7.54723 3.38101 5.59601C5.29499 3.50464 8.45257 3.13135 10.8019 4.71808L11.9914 5.52179L13.2228 4.69074Z" stroke="black" stroke-opacity="0.84" stroke-width="1.5"/>
</g>
</svg>
