<svg width="24" height="24" viewBox="0 0 24 24" fill="none" xmlns="http://www.w3.org/2000/svg">
<path d="M11.2725 4.1373C11.7689 3.64108 12.5741 3.64097 13.0704 4.1373C13.3905 4.45753 13.5155 4.92419 13.3995 5.36191L12.7442 7.80527C12.6837 8.03052 12.7312 8.27157 12.8731 8.45663C13.015 8.64152 13.2348 8.74949 13.4678 8.7496H19.8712C20.7127 8.7496 21.3946 9.43251 21.3946 10.274C21.3946 10.4239 21.3727 10.573 21.3292 10.7164L21.3243 10.733L19.2169 18.2652C18.7953 19.6519 17.5168 20.6002 16.0675 20.6002H3.91219C3.22629 20.6002 2.67007 20.0439 2.67 19.358V9.99179C2.67011 9.30595 3.22632 8.7496 3.91219 8.7496H5.84285C6.02766 8.7496 6.20623 8.68158 6.34383 8.5582L11.2432 4.16562C11.2533 4.1566 11.263 4.14685 11.2725 4.1373Z" stroke="black" stroke-opacity="0.84" stroke-width="1.5" stroke-linejoin="round"/>
<path d="M6.64588 8.56708V20.4162" stroke="black" stroke-opacity="0.84" stroke-width="1.5"/>
</svg>
