<svg width="24" height="24" viewBox="0 0 24 24" fill="none" xmlns="http://www.w3.org/2000/svg">
<path fill-rule="evenodd" clip-rule="evenodd" d="M4.99617 21.3503H3.91219C2.81208 21.3503 1.92007 20.4582 1.92 19.3581V9.99187C1.92011 8.89181 2.8121 7.99968 3.91219 7.99968H4.99617V21.3503ZM10.7423 3.6071C11.5315 2.81799 12.8114 2.81788 13.6007 3.6071C14.1098 4.11629 14.3096 4.85835 14.1251 5.55437L13.4678 7.99968H19.8712C21.1269 7.99968 22.1446 9.01837 22.1446 10.2741C22.1446 10.498 22.1121 10.721 22.047 10.9352L19.9346 18.4831C19.4171 20.1858 17.8471 21.3503 16.0675 21.3503H6.49617V7.41374L10.7423 3.6071Z" fill="black" fill-opacity="0.84"/>
</svg>
