<svg width="24" height="24" viewBox="0 0 24 24" fill="none" xmlns="http://www.w3.org/2000/svg">
<mask id="path-1-inside-1_1_1076" fill="white">
<path fill-rule="evenodd" clip-rule="evenodd" d="M15.5058 19.4983C15.7819 19.4983 16.0058 19.2744 16.0058 18.9983V13.2883H19.2841C19.9218 13.2883 20.2409 12.5173 19.79 12.0667L12.3613 4.64868C12.1617 4.44952 11.8381 4.44947 11.6386 4.64868L4.20989 12.0667C3.75917 12.5173 4.0783 13.2882 4.71575 13.2883H7.99407V18.9983C7.99407 19.2744 8.21794 19.4983 8.49407 19.4983H15.5058Z"/>
</mask>
<path d="M16.0058 18.9983H17.5058V18.9983L16.0058 18.9983ZM16.0058 13.2883H14.5058V11.7883H16.0058V13.2883ZM19.2841 13.2883V14.7883V13.2883ZM19.79 12.0667L20.8499 11.0052L20.8502 11.0056L19.79 12.0667ZM12.3613 4.64868L13.4209 3.58699L13.4211 3.58725L12.3613 4.64868ZM11.6386 4.64868L10.5787 3.58725L10.5787 3.58723L11.6386 4.64868ZM4.20989 12.0667L3.14934 11.0059L3.15 11.0052L4.20989 12.0667ZM4.71575 13.2883V14.7883H4.71538L4.71575 13.2883ZM7.99407 13.2883V11.7883H9.49407V13.2883H7.99407ZM8.49407 19.4983V20.9983H8.494L8.49407 19.4983ZM15.5058 19.4983V17.9983C14.9535 17.9983 14.5058 18.446 14.5058 18.9983L16.0058 18.9983L17.5058 18.9983C17.5058 20.1029 16.6104 20.9983 15.5058 20.9983V19.4983ZM16.0058 18.9983H14.5058V13.2883H16.0058H17.5058V18.9983H16.0058ZM16.0058 13.2883V11.7883H19.2841V13.2883V14.7883H16.0058V13.2883ZM19.2841 13.2883V11.7883C18.5853 11.7883 18.2351 12.6335 18.7297 13.1277L19.79 12.0667L20.8502 11.0056C22.2468 12.4011 21.2582 14.7883 19.2841 14.7883V13.2883ZM19.79 12.0667L18.7301 13.1281L11.3014 5.71011L12.3613 4.64868L13.4211 3.58725L20.8499 11.0052L19.79 12.0667ZM12.3613 4.64868L11.3016 5.71037C11.6874 6.09539 12.3121 6.09589 12.6985 5.71013L11.6386 4.64868L10.5787 3.58723C11.3641 2.80305 12.636 2.80366 13.4209 3.58699L12.3613 4.64868ZM11.6386 4.64868L12.6985 5.71011L5.26978 13.1281L4.20989 12.0667L3.15 11.0052L10.5787 3.58725L11.6386 4.64868ZM4.20989 12.0667L5.27044 13.1274C5.76475 12.6332 5.41483 11.7885 4.71612 11.7883L4.71575 13.2883L4.71538 14.7883C2.74176 14.7878 1.75359 12.4013 3.14934 11.0059L4.20989 12.0667ZM4.71575 13.2883V11.7883H7.99407V13.2883V14.7883H4.71575V13.2883ZM7.99407 13.2883H9.49407V18.9983H7.99407H6.49407V13.2883H7.99407ZM7.99407 18.9983H9.49407C9.49407 18.4459 9.04631 17.9983 8.49413 17.9983L8.49407 19.4983L8.494 20.9983C7.38956 20.9982 6.49407 20.1029 6.49407 18.9983H7.99407ZM8.49407 19.4983V17.9983H15.5058V19.4983V20.9983H8.49407V19.4983Z" fill="black" fill-opacity="0.84" mask="url(#path-1-inside-1_1_1076)"/>
</svg>
