<svg width="24" height="24" viewBox="0 0 24 24" fill="none" xmlns="http://www.w3.org/2000/svg">
<mask id="path-1-inside-1_1_1065" fill="white">
<path fill-rule="evenodd" clip-rule="evenodd" d="M15.5058 4.5C15.7819 4.5 16.0058 4.72386 16.0058 5V10.71H19.2841C19.9218 10.71 20.2409 11.481 19.79 11.9316L12.3613 19.3496C12.1617 19.5488 11.8381 19.5488 11.6386 19.3496L4.20989 11.9316C3.75917 11.481 4.0783 10.7101 4.71575 10.71H7.99407V5C7.99407 4.72386 8.21794 4.50001 8.49407 4.5H15.5058Z"/>
</mask>
<path d="M16.0058 5H17.5058V5L16.0058 5ZM16.0058 10.71H14.5058V12.21H16.0058V10.71ZM19.2841 10.71V9.20996V10.71ZM19.79 11.9316L20.8499 12.9931L20.8502 12.9927L19.79 11.9316ZM12.3613 19.3496L13.4209 20.4113L13.4211 20.411L12.3613 19.3496ZM11.6386 19.3496L10.5787 20.411L10.5787 20.4111L11.6386 19.3496ZM4.20989 11.9316L3.14934 12.9924L3.15 12.9931L4.20989 11.9316ZM4.71575 10.71V9.20996H4.71538L4.71575 10.71ZM7.99407 10.71V12.21H9.49407V10.71H7.99407ZM8.49407 4.5V3H8.494L8.49407 4.5ZM15.5058 4.5V6C14.9535 6 14.5058 5.55228 14.5058 5L16.0058 5L17.5058 5C17.5058 3.89543 16.6104 3 15.5058 3V4.5ZM16.0058 5H14.5058V10.71H16.0058H17.5058V5H16.0058ZM16.0058 10.71V12.21H19.2841V10.71V9.20996H16.0058V10.71ZM19.2841 10.71V12.21C18.5853 12.21 18.2351 11.3648 18.7297 10.8706L19.79 11.9316L20.8502 12.9927C22.2468 11.5971 21.2582 9.20996 19.2841 9.20996V10.71ZM19.79 11.9316L18.7301 10.8702L11.3014 18.2882L12.3613 19.3496L13.4211 20.411L20.8499 12.9931L19.79 11.9316ZM12.3613 19.3496L11.3016 18.2879C11.6874 17.9029 12.3121 17.9024 12.6985 18.2882L11.6386 19.3496L10.5787 20.4111C11.3641 21.1952 12.636 21.1946 13.4209 20.4113L12.3613 19.3496ZM11.6386 19.3496L12.6985 18.2882L5.26978 10.8702L4.20989 11.9316L3.15 12.9931L10.5787 20.411L11.6386 19.3496ZM4.20989 11.9316L5.27044 10.8709C5.76475 11.3651 5.41483 12.2098 4.71612 12.21L4.71575 10.71L4.71538 9.20996C2.74176 9.21045 1.75359 11.5969 3.14934 12.9924L4.20989 11.9316ZM4.71575 10.71V12.21H7.99407V10.71V9.20996H4.71575V10.71ZM7.99407 10.71H9.49407V5H7.99407H6.49407V10.71H7.99407ZM7.99407 5H9.49407C9.49407 5.55236 9.04631 5.99998 8.49413 6L8.49407 4.5L8.494 3C7.38956 3.00005 6.49407 3.89537 6.49407 5H7.99407ZM8.49407 4.5V6H15.5058V4.5V3H8.49407V4.5Z" fill="black" fill-opacity="0.84" mask="url(#path-1-inside-1_1_1065)"/>
</svg>
