<svg width="24" height="24" viewBox="0 0 24 24" fill="none" xmlns="http://www.w3.org/2000/svg">
<mask id="path-1-inside-1_1_1098" fill="white">
<path fill-rule="evenodd" clip-rule="evenodd" d="M4.50085 15.5049C4.50085 15.7811 4.72471 16.0049 5.00085 16.0049H10.7108V19.2832C10.7108 19.9209 11.4818 20.2401 11.9325 19.7891L19.3505 12.3604C19.5496 12.1608 19.5497 11.8372 19.3505 11.6377L11.9325 4.20903C11.4819 3.75831 10.711 4.07744 10.7108 4.71489V7.99321H5.00085C4.72472 7.99321 4.50087 8.21707 4.50085 8.49321L4.50085 15.5049Z"/>
</mask>
<path d="M5.00085 16.0049V17.5049H5.00085L5.00085 16.0049ZM10.7108 16.0049V14.5049H12.2108V16.0049H10.7108ZM10.7108 19.2832H9.21082H10.7108ZM11.9325 19.7891L12.9939 20.849L12.9935 20.8494L11.9325 19.7891ZM19.3505 12.3604L20.4122 13.42L20.4119 13.4203L19.3505 12.3604ZM19.3505 11.6377L20.4119 10.5778L20.4119 10.5779L19.3505 11.6377ZM11.9325 4.20903L12.9933 3.14847L12.9939 3.14913L11.9325 4.20903ZM10.7108 4.71489H9.21082V4.71452L10.7108 4.71489ZM10.7108 7.99321H12.2108V9.49321H10.7108V7.99321ZM4.50085 8.49321H3.00085V8.49314L4.50085 8.49321ZM4.50085 15.5049H6.00085C6.00085 14.9526 5.55314 14.5049 5.00085 14.5049L5.00085 16.0049L5.00085 17.5049C3.89629 17.5049 3.00085 16.6095 3.00085 15.5049H4.50085ZM5.00085 16.0049V14.5049H10.7108V16.0049V17.5049H5.00085V16.0049ZM10.7108 16.0049H12.2108V19.2832H10.7108H9.21082V16.0049H10.7108ZM10.7108 19.2832H12.2108C12.2108 18.5844 11.3657 18.2342 10.8715 18.7288L11.9325 19.7891L12.9935 20.8494C11.598 22.2459 9.21082 21.2574 9.21082 19.2832H10.7108ZM11.9325 19.7891L10.8711 18.7292L18.289 11.3005L19.3505 12.3604L20.4119 13.4203L12.9939 20.849L11.9325 19.7891ZM19.3505 12.3604L18.2888 11.3008C17.9038 11.6865 17.9033 12.3113 18.289 12.6976L19.3505 11.6377L20.4119 10.5779C21.1961 11.3632 21.1955 12.6352 20.4122 13.42L19.3505 12.3604ZM19.3505 11.6377L18.289 12.6976L10.8711 5.26892L11.9325 4.20903L12.9939 3.14913L20.4119 10.5778L19.3505 11.6377ZM11.9325 4.20903L10.8717 5.26958C11.3659 5.76389 12.2106 5.41397 12.2108 4.71525L10.7108 4.71489L9.21082 4.71452C9.2113 2.7409 11.5978 1.75273 12.9933 3.14847L11.9325 4.20903ZM10.7108 4.71489H12.2108V7.99321H10.7108H9.21082V4.71489H10.7108ZM10.7108 7.99321V9.49321H5.00085V7.99321V6.49321H10.7108V7.99321ZM5.00085 7.99321V9.49321C5.55321 9.49321 6.00083 9.04545 6.00085 8.49327L4.50085 8.49321L3.00085 8.49314C3.0009 7.3887 3.89623 6.49321 5.00085 6.49321V7.99321ZM4.50085 8.49321H6.00085L6.00085 15.5049H4.50085H3.00085L3.00085 8.49321H4.50085Z" fill="black" fill-opacity="0.84" mask="url(#path-1-inside-1_1_1098)"/>
</svg>
