<svg width="24" height="24" viewBox="0 0 24 24" fill="none" xmlns="http://www.w3.org/2000/svg">
<mask id="path-1-inside-1_1_1087" fill="white">
<path fill-rule="evenodd" clip-rule="evenodd" d="M19.4991 15.5049C19.4991 15.7811 19.2753 16.0049 18.9991 16.0049H13.2892V19.2832C13.2892 19.9209 12.5182 20.2401 12.0675 19.7891L4.64954 12.3604C4.45038 12.1608 4.45032 11.8372 4.64954 11.6377L12.0675 4.20903C12.5181 3.75831 13.289 4.07744 13.2892 4.71489V7.99321H18.9991C19.2753 7.99321 19.4991 8.21707 19.4991 8.49321V15.5049Z"/>
</mask>
<path d="M18.9991 16.0049V17.5049H18.9991L18.9991 16.0049ZM13.2892 16.0049V14.5049H11.7892V16.0049H13.2892ZM13.2892 19.2832H14.7892H13.2892ZM12.0675 19.7891L11.0061 20.849L11.0065 20.8494L12.0675 19.7891ZM4.64954 12.3604L3.58785 13.42L3.58811 13.4203L4.64954 12.3604ZM4.64954 11.6377L3.58811 10.5778L3.58808 10.5779L4.64954 11.6377ZM12.0675 4.20903L11.0067 3.14847L11.0061 3.14913L12.0675 4.20903ZM13.2892 4.71489H14.7892V4.71452L13.2892 4.71489ZM13.2892 7.99321H11.7892V9.49321H13.2892V7.99321ZM19.4991 8.49321H20.9991V8.49314L19.4991 8.49321ZM19.4991 15.5049H17.9991C17.9991 14.9526 18.4469 14.5049 18.9991 14.5049L18.9991 16.0049L18.9991 17.5049C20.1037 17.5049 20.9991 16.6095 20.9991 15.5049H19.4991ZM18.9991 16.0049V14.5049H13.2892V16.0049V17.5049H18.9991V16.0049ZM13.2892 16.0049H11.7892V19.2832H13.2892H14.7892V16.0049H13.2892ZM13.2892 19.2832H11.7892C11.7892 18.5844 12.6343 18.2342 13.1285 18.7288L12.0675 19.7891L11.0065 20.8494C12.402 22.2459 14.7892 21.2574 14.7892 19.2832H13.2892ZM12.0675 19.7891L13.1289 18.7292L5.71096 11.3005L4.64954 12.3604L3.58811 13.4203L11.0061 20.849L12.0675 19.7891ZM4.64954 12.3604L5.71123 11.3008C6.09624 11.6865 6.09674 12.3113 5.71099 12.6976L4.64954 11.6377L3.58808 10.5779C2.8039 11.3632 2.80451 12.6352 3.58785 13.42L4.64954 12.3604ZM4.64954 11.6377L5.71096 12.6976L13.1289 5.26892L12.0675 4.20903L11.0061 3.14913L3.58811 10.5778L4.64954 11.6377ZM12.0675 4.20903L13.1283 5.26958C12.6341 5.76389 11.7894 5.41397 11.7892 4.71525L13.2892 4.71489L14.7892 4.71452C14.7887 2.7409 12.4022 1.75273 11.0067 3.14847L12.0675 4.20903ZM13.2892 4.71489H11.7892V7.99321H13.2892H14.7892V4.71489H13.2892ZM13.2892 7.99321V9.49321H18.9991V7.99321V6.49321H13.2892V7.99321ZM18.9991 7.99321V9.49321C18.4468 9.49321 17.9992 9.04545 17.9991 8.49327L19.4991 8.49321L20.9991 8.49314C20.9991 7.3887 20.1038 6.49321 18.9991 6.49321V7.99321ZM19.4991 8.49321H17.9991V15.5049H19.4991H20.9991V8.49321H19.4991Z" fill="black" fill-opacity="0.84" mask="url(#path-1-inside-1_1_1087)"/>
</svg>
