<svg width="24" height="24" viewBox="0 0 24 24" fill="none" xmlns="http://www.w3.org/2000/svg">
<circle cx="12" cy="12" r="9.25" stroke="black" stroke-width="1.5"/>
<path fill-rule="evenodd" clip-rule="evenodd" d="M8.63004 15.875C8.73689 15.875 8.83193 15.8071 8.86655 15.706L9.24191 14.6101C9.25922 14.5596 9.30674 14.5256 9.36016 14.5256H11.9002C11.954 14.5256 12.0017 14.56 12.0187 14.611L12.3845 15.7043C12.4186 15.8063 12.5141 15.875 12.6216 15.875H13.6423C13.816 15.875 13.9368 15.7021 13.877 15.539L11.2657 8.41397C11.2296 8.31548 11.1358 8.25 11.0309 8.25H10.2089C10.1038 8.25 10.01 8.31562 9.97402 8.41426L7.37273 15.5393C7.31318 15.7024 7.43394 15.875 7.60756 15.875H8.63004ZM16.5001 8.30914V15.875H15.0001V8.30914H16.5001Z" fill="black"/>
</svg>
