<svg width="24" height="24" viewBox="0 0 24 24" fill="none" xmlns="http://www.w3.org/2000/svg">
<rect x="3.75" y="3.75" width="16.5" height="16.5" rx="1.25" stroke="black" stroke-width="1.5"/>
<path fill-rule="evenodd" clip-rule="evenodd" d="M16.9261 8.30328H7.20273C7.13401 8.30328 7.07835 8.24777 7.07835 8.17925V7.24903C7.07835 7.1805 7.13401 7.125 7.20273 7.125H16.0555C16.5363 7.125 16.9261 7.51371 16.9261 7.9932V8.30328Z" fill="black"/>
<path fill-rule="evenodd" clip-rule="evenodd" d="M16.8756 14.3815H7.12436C7.0557 14.3815 6.99998 14.326 6.99998 14.2575V13.2653C6.99998 13.1967 7.0557 13.1412 7.12436 13.1412H16.8756C16.9443 13.1412 17 13.1967 17 13.2653V14.2575C17 14.326 16.9443 14.3815 16.8756 14.3815Z" fill="black"/>
</svg>
