<svg width="24" height="24" viewBox="0 0 24 24" fill="none" xmlns="http://www.w3.org/2000/svg">
<rect x="3.75" y="3.75" width="16.5" height="16.5" rx="1.25" stroke="black" stroke-width="1.5"/>
<path fill-rule="evenodd" clip-rule="evenodd" d="M15.8264 15C16.5242 15 17.0054 14.772 17.4224 14.3485C17.9878 13.7744 18.0005 13.0204 18 12.2083V11.8959C18.0005 11.0838 17.9878 10.3298 17.4224 9.75574C17.0054 9.33229 16.5242 9.10428 15.8264 9.10428C15.1287 9.10428 14.6475 9.33229 14.2305 9.75574C13.6651 10.3298 13.6524 11.0838 13.6529 11.8959V12.2083C13.6524 13.0204 13.6651 13.7744 14.2305 14.3485C14.6475 14.772 15.1287 15 15.8264 15ZM10.2125 14.9511V13.0077C10.2125 12.9387 10.2684 12.8827 10.3375 12.8827H11.0706C12.3378 12.8827 13.0195 11.9707 13.0195 11.0179C13.0195 10.0652 12.3378 9.15314 11.0706 9.15314H8.93367C8.7956 9.15314 8.68367 9.26507 8.68367 9.40314V14.9511H10.2125ZM7.5288 14.9511V9.24999H6V14.9511H7.5288Z" fill="black"/>
</svg>
