<svg width="24" height="24" viewBox="0 0 24 24" fill="none" xmlns="http://www.w3.org/2000/svg">
<path fill-rule="evenodd" clip-rule="evenodd" d="M10.3076 1.74585C10.4527 1.35822 10.8846 1.16159 11.2725 1.3064C12.0001 1.57833 12.4137 2.17301 12.6455 2.75366C12.8721 3.32133 12.9599 3.95721 12.9961 4.49976H15.5C19.3659 4.49976 22.4999 7.63386 22.5 11.4998V14.9998C22.5 17.675 20.3989 19.8592 17.7568 19.9929L17.5 19.9998H6.5L6.24316 19.9929C3.60111 19.8592 1.5 17.675 1.5 14.9998V11.4998C1.50011 7.63386 4.63407 4.49976 8.5 4.49976H11.4912C11.4559 4.05903 11.3842 3.64069 11.252 3.30933C11.1093 2.95225 10.9353 2.78099 10.7471 2.71069C10.3593 2.5656 10.1627 2.13373 10.3076 1.74585ZM8.5 5.99976C5.4625 5.99976 3.00011 8.46228 3 11.4998V14.9998C3 16.9328 4.567 18.4998 6.5 18.4998H17.5C19.433 18.4998 21 16.9328 21 14.9998V11.4998C20.9999 8.46228 18.5375 5.99976 15.5 5.99976H8.5ZM9.5 9.99976C9.77607 9.99976 9.99989 10.2237 10 10.4998V13.4998C10 13.7759 9.77614 13.9998 9.5 13.9998H8.5C8.22386 13.9998 8 13.7759 8 13.4998V10.4998C8.00011 10.2237 8.22393 9.99976 8.5 9.99976H9.5ZM15.5 9.99976C15.7761 9.99976 15.9999 10.2237 16 10.4998V13.4998C16 13.7759 15.7761 13.9998 15.5 13.9998H14.5C14.2239 13.9998 14 13.7759 14 13.4998V10.4998C14.0001 10.2237 14.2239 9.99976 14.5 9.99976H15.5Z" fill="black"/>
</svg>
