<svg width="24" height="24" viewBox="0 0 24 24" fill="none" xmlns="http://www.w3.org/2000/svg">
<path d="M5.125 9.25C5.26307 9.25 5.375 9.36193 5.375 9.5V12.25H6.5C7.05228 12.25 7.5 12.6977 7.5 13.25V18.5C7.5 19.0523 7.05228 19.5 6.5 19.5H5.375V21.5C5.375 21.6381 5.26307 21.75 5.125 21.75H4.375C4.23693 21.75 4.125 21.6381 4.125 21.5V19.5H3C2.44772 19.5 2 19.0523 2 18.5V13.25C2 12.6977 2.44772 12.25 3 12.25H4.125V9.5C4.125 9.36193 4.23693 9.25 4.375 9.25H5.125ZM19.625 2.25C19.7631 2.25 19.875 2.36193 19.875 2.5V5.5H21C21.5523 5.5 22 5.94772 22 6.5V15.25C22 15.8023 21.5523 16.25 21 16.25H19.875V19.875C19.875 20.0131 19.7631 20.125 19.625 20.125H18.875C18.7369 20.125 18.625 20.0131 18.625 19.875V16.25H17.5C16.9477 16.25 16.5 15.8023 16.5 15.25V6.5C16.5 5.94772 16.9477 5.5 17.5 5.5H18.625V2.5C18.625 2.36193 18.7369 2.25 18.875 2.25H19.625ZM12.375 6C12.5131 6 12.625 6.11193 12.625 6.25V9H13.75C14.3023 9 14.75 9.44772 14.75 10V16.5C14.75 17.0523 14.3023 17.5 13.75 17.5H12.625V19.5C12.625 19.6381 12.5131 19.75 12.375 19.75H11.625C11.4869 19.75 11.375 19.6381 11.375 19.5V17.5H10.25C9.69772 17.5 9.25 17.0523 9.25 16.5V10C9.25 9.44772 9.69772 9 10.25 9H11.375V6.25C11.375 6.11193 11.4869 6 11.625 6H12.375Z" fill="#2E58FF"/>
</svg>
