<svg width="24" height="24" viewBox="0 0 24 24" fill="none" xmlns="http://www.w3.org/2000/svg">
<path opacity="0.9" fill-rule="evenodd" clip-rule="evenodd" d="M20.8 3C22.015 3 23 3.89543 23 5V19C23 20.1046 22.015 21 20.8 21H3.2C1.98497 21 1 20.1046 1 19V5C1 3.89543 1.98497 3 3.2 3H20.8ZM20.8 4.33H3.2C2.735 4.33 2.39146 4.60708 2.33743 4.91534L2.33 5V19C2.33 19.3119 2.63479 19.615 3.07632 19.6633L3.2 19.67H20.8C21.265 19.67 21.6085 19.3929 21.6626 19.0847L21.67 19V5C21.67 4.6881 21.3652 4.38503 20.9237 4.33669L20.8 4.33ZM16.6924 8.72137C16.5901 8.62868 16.432 8.63648 16.3393 8.7388L13.295 12.099L10.8044 9.34984C10.6734 9.20525 10.4462 9.20526 10.3152 9.34985L6.675 13.3683C6.5823 13.4706 6.59011 13.6287 6.69243 13.7214L7.30752 14.2786C7.40986 14.3713 7.568 14.3635 7.66068 14.2611L10.559 11.06L13.0505 13.8104C13.1815 13.955 13.4086 13.955 13.5396 13.8104L17.325 9.63174C17.4177 9.52942 17.4099 9.37132 17.3076 9.27862L16.6924 8.72137Z" fill="black" fill-opacity="0.84"/>
</svg>
