<svg width="24" height="24" viewBox="0 0 24 24" fill="none" xmlns="http://www.w3.org/2000/svg">
<path fill-rule="evenodd" clip-rule="evenodd" d="M20.8 3C22.015 3 23 3.89543 23 5V19C23 20.1046 22.015 21 20.8 21H3.2C1.98497 21 1 20.1046 1 19V5C1 3.89543 1.98497 3 3.2 3H20.8ZM16.6924 8.72138C16.5901 8.6287 16.432 8.6365 16.3393 8.73881L13.295 12.099L10.8044 9.34984L10.7813 9.32683C10.6463 9.20447 10.4376 9.21478 10.3152 9.34985L6.675 13.3683C6.5823 13.4706 6.59011 13.6287 6.69243 13.7214L7.30757 14.2786L7.36283 14.3167C7.4608 14.3661 7.58345 14.3465 7.66064 14.2611L10.559 11.06L13.0505 13.8104C13.0578 13.8184 13.0655 13.8261 13.0735 13.8334C13.2086 13.9558 13.4173 13.9454 13.5396 13.8104L17.325 9.63174C17.4177 9.52942 17.4099 9.37132 17.3076 9.27862L16.6924 8.72138Z" fill="#2E58FF"/>
</svg>
