<svg width="24" height="24" viewBox="0 0 24 24" fill="none" xmlns="http://www.w3.org/2000/svg">
<path opacity="0.9" d="M21 20.7998C21 22.0148 20.1046 23 19 23L5 23C3.89543 23 3 22.0148 3 20.7998L3 3.2002C3 1.98517 3.89543 1 5 1L19 1C20.1046 1 21 1.98517 21 3.2002L21 20.7998ZM19.6699 3.2002C19.6699 2.73538 19.3931 2.39213 19.085 2.33789L19 2.33008L5 2.33008C4.68814 2.33008 4.38532 2.63473 4.33691 3.07617L4.33008 3.2002L4.33008 20.7998C4.33008 21.2646 4.60693 21.6079 4.91504 21.6621L5 21.6699L19 21.6699C19.3119 21.6699 19.6147 21.3653 19.6631 20.9238L19.6699 20.7998L19.6699 3.2002Z" fill="black" fill-opacity="0.84"/>
<path opacity="0.9" d="M6.5 7H17.5" stroke="black" stroke-opacity="0.84" stroke-width="1.33"/>
<path opacity="0.9" d="M6.5 12H17.5" stroke="black" stroke-opacity="0.84" stroke-width="1.33"/>
<path opacity="0.9" d="M6.5 17H13.5" stroke="black" stroke-opacity="0.84" stroke-width="1.33"/>
</svg>
