<svg width="24" height="24" viewBox="0 0 24 24" fill="none" xmlns="http://www.w3.org/2000/svg">
<g clip-path="url(#clip0_19_10987)">
<path d="M19 1C20.1046 1 21 1.98497 21 3.2V20.8C21 22.015 20.1046 23 19 23H5C3.89543 23 3 22.015 3 20.8V3.2C3 1.98497 3.89543 1 5 1H19ZM12.75 14.66H7.25C7.11193 14.66 7 14.7719 7 14.91V15.74C7 15.8781 7.11193 15.99 7.25 15.99H12.75C12.8881 15.99 13 15.8781 13 15.74V14.91C13 14.7719 12.8881 14.66 12.75 14.66ZM16.75 10.33H7.25C7.11193 10.33 7 10.4419 7 10.58V11.41C7 11.5481 7.11193 11.66 7.25 11.66H16.75C16.8881 11.66 17 11.5481 17 11.41V10.58C17 10.4419 16.8881 10.33 16.75 10.33ZM16.75 6H7.25C7.11193 6 7 6.11193 7 6.25V7.08C7 7.21807 7.11193 7.33 7.25 7.33H16.75C16.8881 7.33 17 7.21807 17 7.08V6.25C17 6.11193 16.8881 6 16.75 6Z" fill="#2E58FF"/>
</g>
<defs>
<clipPath id="clip0_19_10987">
<rect width="18" height="22" fill="white" transform="translate(3 1)"/>
</clipPath>
</defs>
</svg>
