<svg width="24" height="24" viewBox="0 0 24 24" fill="none" xmlns="http://www.w3.org/2000/svg">
<circle cx="12" cy="12" r="11" fill="#2E58FF"/>
<path d="M14.7719 7.62022L15.3588 8.20712C15.4564 8.30475 15.4564 8.46304 15.3588 8.56067L13.919 9.999L15.75 9.99998C15.8881 9.99998 16 10.1119 16 10.25V11.08C16 11.218 15.8881 11.33 15.75 11.33L12.665 11.329V13.005L15.75 13.0052C15.8881 13.0052 16 13.1171 16 13.2552V14.0852C16 14.2232 15.8881 14.3352 15.75 14.3352L12.665 14.335V16.7551C12.665 16.8932 12.5531 17.0051 12.415 17.0051H11.585C11.4469 17.0051 11.335 16.8932 11.335 16.7551V14.335L8.25 14.3352C8.11193 14.3352 8 14.2232 8 14.0852V13.2552C8 13.1171 8.11193 13.0052 8.25 13.0052L11.335 13.005V11.329L8.25 11.33C8.11193 11.33 8 11.218 8 11.08V10.25C8 10.1119 8.11193 9.99998 8.25 9.99998L10.08 9.999L8.64124 8.56067C8.54361 8.46304 8.54361 8.30475 8.64124 8.20712L9.22814 7.62022C9.32577 7.52259 9.48406 7.52259 9.58169 7.62022L11.96 9.999H12.038L14.4183 7.62022C14.5159 7.52259 14.6742 7.52259 14.7719 7.62022Z" fill="white"/>
</svg>
