<svg width="24" height="24" viewBox="0 0 24 24" fill="none" xmlns="http://www.w3.org/2000/svg">
<path d="M12 1C18.0751 1 23 5.92487 23 12C23 18.0751 18.0751 23 12 23C5.92487 23 1 18.0751 1 12C1 5.92487 5.92487 1 12 1ZM12 2.33C6.65941 2.33 2.33 6.65941 2.33 12C2.33 17.3406 6.65941 21.67 12 21.67C17.3406 21.67 21.67 17.3406 21.67 12C21.67 6.65941 17.3406 2.33 12 2.33ZM14.7719 7.62024L15.3588 8.20714C15.4564 8.30477 15.4564 8.46307 15.3588 8.5607L13.919 9.99902L15.75 10C15.8881 10 16 10.1119 16 10.25V11.08C16 11.2181 15.8881 11.33 15.75 11.33L12.665 11.329V13.005L15.75 13.0052C15.8881 13.0052 16 13.1171 16 13.2552V14.0852C16 14.2232 15.8881 14.3352 15.75 14.3352L12.665 14.335V16.7552C12.665 16.8932 12.5531 17.0052 12.415 17.0052H11.585C11.4469 17.0052 11.335 16.8932 11.335 16.7552V14.335L8.25 14.3352C8.11193 14.3352 8 14.2232 8 14.0852V13.2552C8 13.1171 8.11193 13.0052 8.25 13.0052L11.335 13.005V11.329L8.25 11.33C8.11193 11.33 8 11.2181 8 11.08V10.25C8 10.1119 8.11193 10 8.25 10L10.08 9.99902L8.64124 8.5607C8.54361 8.46307 8.54361 8.30477 8.64124 8.20714L9.22814 7.62024C9.32577 7.52261 9.48406 7.52261 9.58169 7.62024L11.96 9.99902H12.038L14.4183 7.62024C14.5159 7.52261 14.6742 7.52261 14.7719 7.62024Z" fill="black" fill-opacity="0.84"/>
</svg>
