<svg width="25" height="24" viewBox="0 0 25 24" fill="none" xmlns="http://www.w3.org/2000/svg">
<path opacity="0.9" d="M12.1785 1.64001C14.8542 1.64001 17.0369 3.75192 17.1501 6.39978L17.155 6.61658V8.92126C17.155 10.1518 16.4834 11.3034 15.532 12.0648L15.3162 12.2269V12.5394L21.905 15.1849C22.6125 15.469 23.0922 16.1276 23.1531 16.8783L23.1599 17.0404V21.4994C23.1599 22.279 22.565 22.9198 21.8044 22.9926L21.6599 22.9994H2.65991C1.88022 22.9994 1.23943 22.4046 1.16675 21.6439L1.15991 21.4994V17.0404C1.15997 16.2782 1.59259 15.5876 2.26636 15.2513L2.41479 15.1849L9.00366 12.5394V12.1713L8.98901 12.1615C7.95086 11.4547 7.22189 10.282 7.20288 9.01208L7.19702 8.28259L7.19312 6.62537C7.19312 3.87223 9.42537 1.64016 12.1785 1.64001ZM12.1785 2.97009C10.2251 2.97023 8.63012 4.50254 8.52905 6.43005L8.52319 6.62439L8.52808 8.44958L8.53296 8.99158C8.54368 9.71481 8.94246 10.4513 9.57495 10.9447L9.73999 11.0638L10.3337 11.4584V13.4388L2.90991 16.4183C2.6878 16.5076 2.53312 16.708 2.4978 16.9398L2.48999 17.0404V21.4994C2.48999 21.5745 2.53865 21.639 2.6062 21.6615L2.65991 21.6703H21.6599C21.7348 21.6703 21.7984 21.6214 21.821 21.5541L21.8298 21.4994V17.0404C21.8298 16.801 21.7027 16.5824 21.5007 16.4633L21.4099 16.4183L13.9861 13.4388V11.5385L14.571 11.1244C15.2872 10.6071 15.754 9.84104 15.8171 9.09412L15.825 8.92126V6.61658C15.825 4.668 14.2963 3.07584 12.3728 2.97498L12.1785 2.97009ZM14.7634 15.3226C14.8923 15.1938 15.1014 15.1938 15.2302 15.3226L15.7039 15.7963C15.8327 15.9251 15.8327 16.1342 15.7039 16.2631L11.8855 20.0814C11.7567 20.2099 11.5485 20.2099 11.4197 20.0814L9.23022 17.892C9.10148 17.7631 9.10139 17.554 9.23022 17.4252L9.70386 16.9515C9.83269 16.8228 10.0418 16.8228 10.1707 16.9515L11.6521 18.433L14.7634 15.3226Z" fill="black" fill-opacity="0.84"/>
</svg>
