<svg width="24" height="24" viewBox="0 0 24 24" fill="none" xmlns="http://www.w3.org/2000/svg">
<path d="M12.0117 1.64001C14.7638 1.64023 16.995 3.87127 16.9951 6.62341V8.92126C16.9951 10.2287 16.2368 11.4466 15.1904 12.2025L15.1562 12.2269V12.5394L21.7451 15.1849C22.5031 15.4893 22.9999 16.2236 23 17.0404V21.4994C23 22.3278 22.3284 22.9994 21.5 22.9994H2.5C1.67157 22.9994 1 22.3278 1 21.4994V17.0404C1.00006 16.2236 1.49692 15.4893 2.25488 15.1849L8.84375 12.5394V12.1713L8.8291 12.1615C7.79095 11.4547 7.06198 10.282 7.04297 9.01208C7.03683 8.59828 7.03531 7.67114 7.03516 6.60974C7.03476 3.86325 9.26522 1.64001 12.0117 1.64001ZM15.0703 15.3226C14.9415 15.1938 14.7324 15.1938 14.6035 15.3226L11.4922 18.433L10.0107 16.9515C9.88188 16.8228 9.67278 16.8228 9.54395 16.9515L9.07031 17.4252C8.94148 17.554 8.94157 17.7631 9.07031 17.892L11.2598 20.0814C11.3886 20.2099 11.5968 20.2099 11.7256 20.0814L15.5439 16.2631C15.6728 16.1342 15.6728 15.9251 15.5439 15.7963L15.0703 15.3226Z" fill="#2E58FF"/>
</svg>
