<svg width="24" height="24" viewBox="0 0 24 24" fill="none" xmlns="http://www.w3.org/2000/svg">
<g clip-path="url(#clip0_19_11033)">
<path fill-rule="evenodd" clip-rule="evenodd" d="M12.0771 1.74207C13.5228 1.74207 14.9388 1.93597 16.3253 2.32377C16.4241 2.35195 16.5182 2.39484 16.604 2.45129C17.0325 2.73308 17.1735 3.28787 16.9478 3.73467L16.8892 3.83569L15.7611 5.54446C19.4023 7.42731 22.1666 11.7939 22.1666 16.0925C22.1666 21.4799 18.5587 22.6666 11.9999 22.6666C5.44117 22.6666 1.83325 21.4799 1.83325 16.0925C1.83325 11.775 4.62192 7.38887 8.28683 5.51974L7.15026 3.85651C7.08707 3.76351 7.03997 3.66055 7.01098 3.55192C6.86859 3.01831 7.18574 2.4703 7.71964 2.32899C9.17248 1.93771 10.625 1.74207 12.0771 1.74207ZM12.3461 9.72853C12.1509 9.53327 11.8343 9.53327 11.639 9.72853L8.10347 13.2641C7.90821 13.4593 7.90821 13.7759 8.10347 13.9712L11.639 17.5067C11.8343 17.702 12.1509 17.702 12.3461 17.5067L15.8816 13.9712C16.0769 13.7759 16.0769 13.4593 15.8816 13.2641L12.3461 9.72853Z" fill="#2E58FF"/>
</g>
<defs>
<clipPath id="clip0_19_11033">
<rect width="22" height="22" fill="white" transform="translate(1 2)"/>
</clipPath>
</defs>
</svg>
