<svg width="24" height="24" viewBox="0 0 24 24" fill="none" xmlns="http://www.w3.org/2000/svg">
<path opacity="0.9" d="M12.0774 2.07709C13.5826 2.07711 15.0582 2.27892 16.5022 2.68256C16.6686 2.72908 16.8268 2.80128 16.9709 2.89642C17.6957 3.37478 17.9242 4.32279 17.5208 5.07318L17.4436 5.20306L16.3411 6.87201C19.6909 8.89958 22.1659 13.0251 22.1663 17.0917C22.1663 21.1094 20.1598 22.7913 16.4192 23.3867L15.8987 23.4609C15.7216 23.4836 15.5408 23.5048 15.3567 23.5234L14.7932 23.5732L14.2083 23.6113L13.6038 23.6386L12.9778 23.6572L12.3313 23.665H11.6692L11.0227 23.6572L10.3967 23.6386L9.79126 23.6113L9.2063 23.5732L8.6438 23.5234C8.45955 23.5048 8.27799 23.4836 8.10083 23.4609L7.58032 23.3867C3.83982 22.7913 1.83325 21.1094 1.83325 17.0917C1.83357 13.0072 4.32981 8.86156 7.70239 6.84369L6.60278 5.23431C6.49738 5.08 6.419 4.90889 6.37036 4.72845C6.13116 3.84072 6.65653 2.92689 7.54419 2.68744C9.05362 2.28072 10.5656 2.07709 12.0774 2.07709ZM12.0002 6.91302C10.948 6.91302 9.89885 7.19952 8.90942 7.70209L8.48657 7.99213L8.45728 7.94916C5.48516 9.69048 3.16365 13.3806 3.16333 17.0917C3.16333 20.1986 4.45321 21.6339 8.1106 22.1269L8.62329 22.1884L9.16724 22.2392C9.26032 22.2466 9.3548 22.2532 9.45044 22.2597L10.0403 22.2939L10.6614 22.3173L11.3137 22.332L12.0002 22.3359L12.6858 22.332L13.3391 22.3173L13.9602 22.2939L14.5491 22.2597C14.6446 22.2532 14.7393 22.2466 14.8323 22.2392L15.3762 22.1884L15.8899 22.1269C19.5471 21.6338 20.8362 20.1985 20.8362 17.0917C20.8357 11.984 16.4402 6.91327 12.0002 6.91302ZM11.6389 10.7285C11.8341 10.5332 12.1507 10.5333 12.3459 10.7285L15.8821 14.2636C16.0773 14.4589 16.0773 14.7764 15.8821 14.9716L12.3459 18.5068C12.1507 18.7019 11.8341 18.702 11.6389 18.5068L8.10376 14.9716C7.9085 14.7764 7.9085 14.4589 8.10376 14.2636L11.6389 10.7285ZM12.1692 12.3193C12.0856 12.2359 11.9579 12.2246 11.8616 12.2841L11.8157 12.3193L9.69458 14.4413C9.61115 14.5249 9.59892 14.6526 9.65845 14.749L9.69458 14.7949L11.8157 16.916C11.8991 16.9993 12.027 17.0113 12.1233 16.9521L12.1692 16.916L14.2903 14.7949C14.3879 14.6972 14.3879 14.539 14.2903 14.4413L12.1692 12.3193ZM12.0774 3.40717C10.6836 3.40717 9.28835 3.59508 7.89087 3.97162C7.71222 4.01977 7.60641 4.20412 7.65454 4.38275L7.6731 4.43549L7.70142 4.48431L8.89868 6.23724C9.89074 5.81848 10.9358 5.58295 12.0002 5.58295C13.0827 5.583 14.1447 5.82745 15.1516 6.2597L16.3333 4.47064C16.435 4.31631 16.3927 4.10874 16.2385 4.00677C16.2095 3.98762 16.1773 3.97317 16.1438 3.96381C14.8165 3.59279 13.4617 3.40719 12.0774 3.40717Z" fill="black" fill-opacity="0.84"/>
</svg>
