<svg width="24" height="24" viewBox="0 0 24 24" fill="none" xmlns="http://www.w3.org/2000/svg">
<path fill-rule="evenodd" clip-rule="evenodd" d="M18.2338 2.56701C18.5462 2.25486 19.0523 2.25499 19.3647 2.56701L21.434 4.63634C21.7459 4.94875 21.7461 5.45493 21.434 5.7672L13.9965 13.2047C13.7397 13.4615 13.4025 13.6236 13.0415 13.6637L10.4965 13.9459C10.2419 13.9742 10.027 13.7591 10.0551 13.5045L10.3374 10.9596C10.3775 10.5986 10.5395 10.2614 10.7963 10.0045L18.2338 2.56701ZM11.8569 11.0651C11.841 11.081 11.8312 11.1023 11.8286 11.1246L11.6967 12.3033L12.8764 12.1725C12.8987 12.1699 12.9201 12.16 12.936 12.1442L19.8784 5.20177L18.7993 4.12267L11.8569 11.0651Z" fill="#0F0F0F"/>
<path d="M12 3.75H4.75C4.19772 3.75 3.75 4.19772 3.75 4.75V19.25C3.75 19.8023 4.19772 20.25 4.75 20.25H19.25C19.8023 20.25 20.25 19.8023 20.25 19.25V12" stroke="#0F0F0F" stroke-width="1.5"/>
</svg>
