<svg width="24" height="24" viewBox="0 0 24 24" fill="none" xmlns="http://www.w3.org/2000/svg">
<path d="M20.2041 4.01074C21.2128 4.113 22 4.96435 22 6V18C22 19.0357 21.2128 19.887 20.2041 19.9893L20 20H4C2.89543 20 2 19.1046 2 18V6C2 4.89543 2.89543 4 4 4H20L20.2041 4.01074ZM13.0459 13.5957C12.4601 14.1814 11.5106 14.1813 10.9248 13.5957L3.5 6.1709V18C3.5 18.2761 3.72386 18.5 4 18.5H20C20.2761 18.5 20.5 18.2761 20.5 18V6.1416L13.0459 13.5957ZM11.9854 12.5352L19.0205 5.5H4.9502L11.9854 12.5352Z" fill="black"/>
</svg>
