<svg width="24" height="24" viewBox="0 0 24 24" fill="none" xmlns="http://www.w3.org/2000/svg">
<path fill-rule="evenodd" clip-rule="evenodd" d="M11.9996 4.5C16.9195 4.50002 21.1458 7.5858 22.9976 12C21.1458 16.4142 16.9195 19.5 11.9996 19.5C7.07973 19.4998 2.85319 16.4142 1.00153 12C2.85319 7.58576 7.07973 4.50019 11.9996 4.5ZM11.9996 8.5C10.0668 8.50023 8.49957 10.0671 8.49957 12C8.49957 13.9329 10.0668 15.4998 11.9996 15.5C13.9326 15.5 15.4996 13.933 15.4996 12C15.4996 10.067 13.9326 8.5 11.9996 8.5ZM11.9996 10C13.1041 10 13.9996 10.8954 13.9996 12C13.9996 13.1046 13.1041 14 11.9996 14C10.8952 13.9998 9.99957 13.1044 9.99957 12C9.99957 10.8956 10.8952 10.0002 11.9996 10Z" fill="black" fill-opacity="0.84"/>
</svg>
