<svg width="24" height="24" viewBox="0 0 24 24" fill="none" xmlns="http://www.w3.org/2000/svg">
<mask id="path-1-inside-1_1_788" fill="white">
<path d="M20.5684 7.91119C21.1484 8.27765 21.5 8.91645 21.5 9.6026V19.5001C21.5 20.6046 20.6046 21.5001 19.5 21.5001H4.5C3.39545 21.5001 2.50003 20.6046 2.5 19.5001V9.6026C2.5 8.91645 2.85156 8.27765 3.43164 7.91119L6.5 5.97369V7.74713L4.2334 9.17975C4.08836 9.27136 4 9.43105 4 9.6026V19.5001C4.00003 19.7762 4.22387 20.0001 4.5 20.0001H19.5C19.7761 20.0001 20 19.7762 20 19.5001V9.6026C20 9.43105 19.9116 9.27136 19.7666 9.17975L17.5 7.74713V5.97369L20.5684 7.91119Z"/>
</mask>
<path d="M20.5684 7.91119L21.3695 6.64305L21.3692 6.64288L20.5684 7.91119ZM21.5 19.5001L23 19.5001V19.5001H21.5ZM19.5 21.5001V23.0001V21.5001ZM4.5 21.5001L4.5 23.0001H4.5V21.5001ZM2.5 19.5001H1V19.5001L2.5 19.5001ZM3.43164 7.91119L2.63077 6.64288L2.63051 6.64305L3.43164 7.91119ZM6.5 5.97369H8V3.25251L5.69913 4.70538L6.5 5.97369ZM6.5 7.74713L7.30142 9.01509L8 8.57355V7.74713H6.5ZM4.2334 9.17975L5.03446 10.4479L5.03482 10.4477L4.2334 9.17975ZM4 19.5001H2.5L2.5 19.5002L4 19.5001ZM4.5 20.0001L4.5 21.5001H4.5V20.0001ZM20 19.5001L21.5 19.5002V19.5001H20ZM19.7666 9.17975L18.9652 10.4477L18.9655 10.4479L19.7666 9.17975ZM17.5 7.74713H16V8.57355L16.6986 9.01509L17.5 7.74713ZM17.5 5.97369L18.3009 4.70538L16 3.25251V5.97369H17.5ZM20.5684 7.91119L19.7672 9.17934C19.9116 9.27056 20 9.43033 20 9.6026H21.5H23C23 8.40257 22.3853 7.28474 21.3695 6.64305L20.5684 7.91119ZM21.5 9.6026H20V19.5001H21.5H23V9.6026H21.5ZM21.5 19.5001L20 19.5C20 19.7762 19.7761 20.0001 19.5 20.0001V21.5001V23.0001C21.433 23.0001 23 21.433 23 19.5001L21.5 19.5001ZM19.5 21.5001V20.0001H4.5V21.5001V23.0001H19.5V21.5001ZM4.5 21.5001L4.5 20.0001C4.22391 20.0001 4.00001 19.7762 4 19.5L2.5 19.5001L1 19.5001C1.00005 21.433 2.56698 23.0001 4.5 23.0001L4.5 21.5001ZM2.5 19.5001H4V9.6026H2.5H1V19.5001H2.5ZM2.5 9.6026H4C4 9.43033 4.08837 9.27056 4.23277 9.17934L3.43164 7.91119L2.63051 6.64305C1.61474 7.28474 1 8.40257 1 9.6026H2.5ZM3.43164 7.91119L4.23251 9.1795L7.30087 7.242L6.5 5.97369L5.69913 4.70538L2.63077 6.64288L3.43164 7.91119ZM6.5 5.97369H5V7.74713H6.5H8V5.97369H6.5ZM6.5 7.74713L5.69858 6.47917L3.43198 7.91179L4.2334 9.17975L5.03482 10.4477L7.30142 9.01509L6.5 7.74713ZM4.2334 9.17975L3.43234 7.91156C2.85398 8.27688 2.5 8.91431 2.5 9.6026H4H5.5C5.5 9.9478 5.32274 10.2658 5.03446 10.4479L4.2334 9.17975ZM4 9.6026H2.5V19.5001H4H5.5V9.6026H4ZM4 19.5001L2.5 19.5002C2.50011 20.6045 3.3953 21.5001 4.5 21.5001L4.5 20.0001L4.5 18.5001C5.05245 18.5001 5.49994 18.9479 5.5 19.4999L4 19.5001ZM4.5 20.0001V21.5001H19.5V20.0001V18.5001H4.5V20.0001ZM19.5 20.0001V21.5001C20.6047 21.5001 21.4999 20.6045 21.5 19.5002L20 19.5001L18.5 19.4999C18.5001 18.9479 18.9475 18.5001 19.5 18.5001V20.0001ZM20 19.5001H21.5V9.6026H20H18.5V19.5001H20ZM20 9.6026H21.5C21.5 8.91431 21.146 8.27688 20.5677 7.91156L19.7666 9.17975L18.9655 10.4479C18.6773 10.2658 18.5 9.9478 18.5 9.6026H20ZM19.7666 9.17975L20.568 7.91179L18.3014 6.47917L17.5 7.74713L16.6986 9.01509L18.9652 10.4477L19.7666 9.17975ZM17.5 7.74713H19V5.97369H17.5H16V7.74713H17.5ZM17.5 5.97369L16.6991 7.242L19.7675 9.1795L20.5684 7.91119L21.3692 6.64288L18.3009 4.70538L17.5 5.97369Z" fill="#0F0F0F" mask="url(#path-1-inside-1_1_788)"/>
<mask id="path-3-inside-2_1_788" fill="white">
<path d="M18 2.5C18.5523 2.5 19 2.94772 19 3.5V11.5527L12 15.4414L5 11.5527V3.5C5 2.94772 5.44772 2.5 6 2.5H18Z"/>
</mask>
<path d="M18 2.5L18 1H18V2.5ZM19 3.5H20.5H19ZM19 11.5527L19.7284 12.864L20.5 12.4354V11.5527H19ZM12 15.4414L11.2716 16.7527L12 17.1573L12.7284 16.7527L12 15.4414ZM5 11.5527H3.5V12.4354L4.27157 12.864L5 11.5527ZM5 3.5L3.5 3.5V3.5H5ZM6 2.5V1H6L6 2.5ZM18 2.5L18 4C17.7239 4 17.5 3.77614 17.5 3.5H19H20.5C20.5 2.11929 19.3807 1 18 1L18 2.5ZM19 3.5H17.5V11.5527H19H20.5V3.5H19ZM19 11.5527L18.2716 10.2415L11.2716 14.1302L12 15.4414L12.7284 16.7527L19.7284 12.864L19 11.5527ZM12 15.4414L12.7284 14.1302L5.72843 10.2415L5 11.5527L4.27157 12.864L11.2716 16.7527L12 15.4414ZM5 11.5527H6.5V3.5H5H3.5V11.5527H5ZM5 3.5L6.5 3.5C6.5 3.77614 6.27614 4 6 4L6 2.5L6 1C4.61929 1 3.5 2.11929 3.5 3.5L5 3.5ZM6 2.5V4H18V2.5V1H6V2.5Z" fill="#0F0F0F" mask="url(#path-3-inside-2_1_788)"/>
<path d="M3 10.5L12 15.5L21 10.5" stroke="#0F0F0F" stroke-width="1.5" stroke-linejoin="round"/>
<path d="M9 6.75H15" stroke="#0F0F0F" stroke-width="1.5"/>
<path d="M9 10.25H15" stroke="#0F0F0F" stroke-width="1.5"/>
</svg>
