<svg width="24" height="24" viewBox="0 0 24 24" fill="none" xmlns="http://www.w3.org/2000/svg">
<mask id="path-1-inside-1_1_879" fill="white">
<path fill-rule="evenodd" clip-rule="evenodd" d="M4.58579 6.58579C4.21071 6.21071 4 5.70201 4 5.17157V4C4 3.44772 4.44772 3 5 3H19C19.5523 3 20 3.44772 20 4V5.17157C20 5.70201 19.7893 6.21071 19.4142 6.58579L15 11V18.9317C15 19.3848 14.6954 19.7812 14.2577 19.898L10.2577 20.9646C9.62282 21.1339 9 20.6554 9 19.9984V11L4.58579 6.58579Z"/>
</mask>
<path d="M4.58579 6.58579L3.52513 7.64645L3.52513 7.64645L4.58579 6.58579ZM19.4142 6.58579L20.4749 7.64645V7.64645L19.4142 6.58579ZM15 11L13.9393 9.93934L13.5 10.3787V11H15ZM14.2577 19.898L14.6442 21.3473H14.6442L14.2577 19.898ZM10.2577 20.9646L9.87117 19.5153H9.87117L10.2577 20.9646ZM9 11H10.5V10.3787L10.0607 9.93934L9 11ZM4 5.17157H2.5C2.5 6.09983 2.86875 6.99007 3.52513 7.64645L4.58579 6.58579L5.64645 5.52513C5.55268 5.43136 5.5 5.30418 5.5 5.17157H4ZM4 4H2.5V5.17157H4H5.5V4H4ZM5 3V1.5C3.61929 1.5 2.5 2.61929 2.5 4H4H5.5C5.5 4.27614 5.27614 4.5 5 4.5V3ZM19 3V1.5H5V3V4.5H19V3ZM20 4H21.5C21.5 2.61929 20.3807 1.5 19 1.5V3V4.5C18.7239 4.5 18.5 4.27614 18.5 4H20ZM20 5.17157H21.5V4H20H18.5V5.17157H20ZM19.4142 6.58579L20.4749 7.64645C21.1313 6.99007 21.5 6.09983 21.5 5.17157H20H18.5C18.5 5.30418 18.4473 5.43136 18.3536 5.52513L19.4142 6.58579ZM15 11L16.0607 12.0607L20.4749 7.64645L19.4142 6.58579L18.3536 5.52513L13.9393 9.93934L15 11ZM15 11H13.5V18.9317H15H16.5V11H15ZM15 18.9317H13.5C13.5 18.7052 13.6523 18.507 13.8712 18.4486L14.2577 19.898L14.6442 21.3473C15.7385 21.0555 16.5 20.0644 16.5 18.9317H15ZM14.2577 19.898L13.8712 18.4486L9.87117 19.5153L10.2577 20.9646L10.6442 22.414L14.6442 21.3473L14.2577 19.898ZM10.2577 20.9646L9.87117 19.5153C10.1886 19.4306 10.5 19.6699 10.5 19.9984H9H7.5C7.5 21.641 9.05704 22.8372 10.6442 22.414L10.2577 20.9646ZM9 19.9984H10.5V11H9H7.5V19.9984H9ZM4.58579 6.58579L3.52513 7.64645L7.93934 12.0607L9 11L10.0607 9.93934L5.64645 5.52513L4.58579 6.58579Z" fill="black" mask="url(#path-1-inside-1_1_879)"/>
</svg>
