<svg width="24" height="24" viewBox="0 0 24 24" fill="none" xmlns="http://www.w3.org/2000/svg">
<path d="M10.2451 3.3768C11.5168 4.21415 12.5673 5.35362 13.29 6.69125L13.332 6.77036C13.9601 7.9607 14.3306 9.30454 14.3711 10.7313L14.4307 12.8377L15.7158 11.1668C16.2456 10.4778 16.6706 9.70599 16.9746 8.87582C18.3765 10.1839 19.25 12.0337 19.25 14.0848C19.25 18.0345 16.0116 21.2498 12 21.2498C7.98843 21.2498 4.75 18.0345 4.75 14.0848C4.75 11.9963 5.66272 10.123 7.11719 8.82031C7.63593 8.36004 8.21973 7.96979 8.84766 7.66309C9.77459 7.21386 10.25 5.87305 10.25 3.57211C10.25 3.50674 10.2473 3.44167 10.2451 3.3768Z" stroke="black" stroke-opacity="0.84" stroke-width="1.5"/>
</svg>
