<svg width="24" height="24" viewBox="0 0 24 24" fill="none" xmlns="http://www.w3.org/2000/svg">
<path fill-rule="evenodd" clip-rule="evenodd" d="M9.38685 2.55237C9.3393 2.33498 9.54866 2.15149 9.74853 2.24933C9.76123 2.25555 9.76996 2.25987 9.77363 2.26178C11.547 3.18476 13.006 4.61931 13.9502 6.36711L13.9938 6.44869C14.5682 7.53655 14.9442 8.74313 15.0743 10.0215C15.0825 10.1019 15.0948 10.295 15.1048 10.4609C15.1105 10.5548 15.2302 10.5897 15.2844 10.5129C15.3891 10.3646 15.5195 10.176 15.5978 10.0481C15.9752 9.43153 16.27 8.75981 16.4669 8.04806C16.5229 7.84572 16.76 7.75453 16.9275 7.88117C16.958 7.90426 16.9855 7.9254 17.0073 7.94273C18.832 9.39346 20 11.6199 20 14.1162C20 18.4876 16.4183 22.0314 12 22.0314C7.58172 22.0314 4 18.4876 4 14.1162C4 12.0437 4.7843 10.1553 6.07965 8.72217C6.62805 8.11323 7.2558 7.57826 7.94839 7.13562C8.71084 6.64895 9.5 5.25547 9.5 3.60372C9.5 3.24295 9.46097 2.89119 9.38685 2.55237Z" fill="black" fill-opacity="0.84"/>
</svg>
