<svg width="24" height="24" viewBox="0 0 24 24" fill="none" xmlns="http://www.w3.org/2000/svg">
<path d="M20.2041 4.01074C21.2128 4.113 22 4.96435 22 6V15.4395L22.0303 15.4697L22 15.5V18C22 19.0357 21.2128 19.887 20.2041 19.9893L20 20H4C2.89543 20 2 19.1046 2 18V16.5L1.96973 16.4697L2 16.4395V6C2 4.89543 2.89543 4 4 4H20L20.2041 4.01074ZM10.3838 16.1768C9.89564 16.6649 9.10436 16.6649 8.61621 16.1768L6.5 14.0605L3.5 17.0605V18C3.5 18.2761 3.72386 18.5 4 18.5H20C20.2761 18.5 20.5 18.2761 20.5 18V16.0605L15.5 11.0605L10.3838 16.1768ZM4 5.5C3.72386 5.5 3.5 5.72386 3.5 6V14.9395L5.61621 12.8232L5.71094 12.7373C6.16918 12.3635 6.83082 12.3635 7.28906 12.7373L7.38379 12.8232L9.5 14.9395L14.6162 9.82324L14.7109 9.7373C15.2019 9.33686 15.9261 9.36563 16.3838 9.82324L20.5 13.9395V6C20.5 5.72386 20.2761 5.5 20 5.5H4ZM7.5 8C8.32843 8 9 8.67157 9 9.5C9 10.3284 8.32843 11 7.5 11C6.67157 11 6 10.3284 6 9.5C6 8.67157 6.67157 8 7.5 8Z" fill="#0F0F0F"/>
</svg>
