<svg width="24" height="24" viewBox="0 0 24 24" fill="none" xmlns="http://www.w3.org/2000/svg">
<path d="M12 2C17.5228 2 22 6.47715 22 12C22 17.5228 17.5228 22 12 22C6.47715 22 2 17.5228 2 12C2 6.47715 6.47715 2 12 2ZM12 3.5C7.30558 3.5 3.5 7.30558 3.5 12C3.5 16.6944 7.30558 20.5 12 20.5C16.6944 20.5 20.5 16.6944 20.5 12C20.5 7.30558 16.6944 3.5 12 3.5ZM12.75 10V17H11.25V10H12.75ZM12 7C12.5523 7 13 7.44772 13 8C13 8.55228 12.5523 9 12 9C11.4477 9 11 8.55228 11 8C11 7.44772 11.4477 7 12 7Z" fill="black"/>
</svg>
