<svg width="24" height="24" viewBox="0 0 24 24" fill="none" xmlns="http://www.w3.org/2000/svg">
<path d="M9.87868 14.1173L14.1213 9.87465" stroke="#0F0F0F" stroke-width="1.5"/>
<path d="M4.92893 14.1173L4.3986 13.587L4.92893 14.1173ZM9.87868 19.067L9.34835 18.5367L9.87868 19.067ZM10.2322 8.81399L10.7626 9.34432L14.6516 5.45523L14.1213 4.9249L13.591 4.39457L9.7019 8.28366L10.2322 8.81399ZM19.0711 9.87465L18.5407 9.34432L14.6516 13.2334L15.182 13.7637L15.7123 14.2941L19.6014 10.405L19.0711 9.87465ZM19.0711 4.9249L18.5407 5.45523C19.6147 6.52917 19.6147 8.27038 18.5407 9.34432L19.0711 9.87465L19.6014 10.405C21.2611 8.74525 21.2611 6.0543 19.6014 4.39457L19.0711 4.9249ZM14.1213 4.9249L14.6516 5.45523C15.7256 4.38129 17.4668 4.38129 18.5407 5.45523L19.0711 4.9249L19.6014 4.39457C17.9417 2.73484 15.2507 2.73484 13.591 4.39457L14.1213 4.9249ZM13.7678 15.1779L13.2374 14.6476L9.34835 18.5367L9.87868 19.067L10.409 19.5974L14.2981 15.7083L13.7678 15.1779ZM4.92893 14.1173L5.45926 14.6476L9.34835 10.7585L8.81802 10.2282L8.28769 9.69787L4.3986 13.587L4.92893 14.1173ZM4.92893 19.067L5.45926 18.5367C4.38532 17.4628 4.38532 15.7216 5.45926 14.6476L4.92893 14.1173L4.3986 13.587C2.73887 15.2467 2.73887 17.9376 4.3986 19.5974L4.92893 19.067ZM9.87868 19.067L9.34835 18.5367C8.27441 19.6106 6.5332 19.6106 5.45926 18.5367L4.92893 19.067L4.3986 19.5974C6.05833 21.2571 8.74928 21.2571 10.409 19.5974L9.87868 19.067Z" fill="#0F0F0F"/>
</svg>
