<svg width="24" height="24" viewBox="0 0 24 24" fill="none" xmlns="http://www.w3.org/2000/svg">
<path d="M19 8C20.1046 8 21 8.89543 21 10V19C21 20.1046 20.1046 21 19 21H5C3.89543 21 3 20.1046 3 19V10C3 8.89543 3.89543 8 5 8H19ZM11.25 12.5V16.5H12.75V12.5H11.25Z" fill="black" fill-opacity="0.84"/>
<path d="M8 9V7.75C8 7.0949 8 6.38606 8 5.74965C8 4.64508 8.89543 3.75 10 3.75H14C15.1046 3.75 16 4.64477 16 5.74934C16 6.33302 16 7.01399 16 7.75V9" stroke="black" stroke-opacity="0.84" stroke-width="1.5"/>
</svg>
