<svg width="24" height="24" viewBox="0 0 24 24" fill="none" xmlns="http://www.w3.org/2000/svg">
<path fill-rule="evenodd" clip-rule="evenodd" d="M17.5872 3.46064C17.0014 2.87485 16.0517 2.87485 15.4659 3.46064L12.4607 6.46584C11.8749 7.05163 11.8749 8.00138 12.4607 8.58716L15.4659 11.5924C16.0517 12.1782 17.0014 12.1782 17.5872 11.5924L20.5924 8.58716C21.1782 8.00138 21.1782 7.05163 20.5924 6.46584L17.5872 3.46064ZM4.5 3.99998C3.67157 3.99998 3 4.67155 3 5.49998V10.5C3 11.3284 3.67157 12 4.5 12H9.5C10.3284 12 11 11.3284 11 10.5V5.49998C11 4.67155 10.3284 3.99998 9.5 3.99998H4.5ZM3 14.5C3 13.6716 3.67157 13 4.5 13H9.5C10.3284 13 11 13.6716 11 14.5V19.5C11 20.3284 10.3284 21 9.5 21H4.5C3.67157 21 3 20.3284 3 19.5V14.5ZM13.5 13C12.6716 13 12 13.6716 12 14.5V19.5C12 20.3284 12.6716 21 13.5 21H18.5C19.3284 21 20 20.3284 20 19.5V14.5C20 13.6716 19.3284 13 18.5 13H13.5Z" stroke="#0F0F0F" stroke-width="1.5"/>
</svg>
