<svg width="24" height="24" viewBox="0 0 24 24" fill="none" xmlns="http://www.w3.org/2000/svg">
<circle cx="12" cy="12" r="9.25" stroke="black" stroke-opacity="0.84" stroke-width="1.5"/>
<path d="M10.5 15V15.75H11.25V15H10.5ZM9 15H8.25V15.75H9V15ZM9 9V8.25H8.25V9H9ZM10.5 9H11.25V8.25H10.5V9ZM15 15V15.75H15.75V15H15ZM13.5 15H12.75V15.75H13.5V15ZM13.5 9V8.25H12.75V9H13.5ZM15 9H15.75V8.25H15V9ZM10.5 15V14.25H9V15V15.75H10.5V15ZM9 15H9.75V9H9H8.25V15H9ZM9 9V9.75H10.5V9V8.25H9V9ZM10.5 9H9.75V15H10.5H11.25V9H10.5ZM15 15V14.25H13.5V15V15.75H15V15ZM13.5 15H14.25V9H13.5H12.75V15H13.5ZM13.5 9V9.75H15V9V8.25H13.5V9ZM15 9H14.25V15H15H15.75V9H15Z" fill="black" fill-opacity="0.84"/>
</svg>
