<svg width="24" height="24" viewBox="0 0 24 24" fill="none" xmlns="http://www.w3.org/2000/svg">
<path d="M12 2.5C14.6872 2.5 17.1115 3.61733 18.8389 5.41113L19.9092 4.3418C20.0351 4.21591 20.2506 4.30454 20.251 4.48242V7.75C20.251 7.888 20.1389 7.99988 20.001 8H18.9307L18.9277 8.00195L18.9268 8H16.7334C16.5554 7.99983 16.4659 7.78415 16.5918 7.6582L17.7773 6.47168C16.3216 4.94953 14.2727 4 12 4C7.58172 4 4 7.58172 4 12C4 16.4183 7.58172 20 12 20C15.6989 20 18.8091 17.489 19.7246 14.0791L21.1738 14.4688C20.0868 18.5182 16.3926 21.5 12 21.5C6.75329 21.5 2.5 17.2467 2.5 12C2.5 6.75329 6.75329 2.5 12 2.5Z" fill="#0F0F0F"/>
</svg>
