<svg width="24" height="24" viewBox="0 0 24 24" fill="none" xmlns="http://www.w3.org/2000/svg">
<path fill-rule="evenodd" clip-rule="evenodd" d="M12 2.375C13.3727 2.375 14.7434 2.65204 16.0313 3.2041L20.3018 5.03906C20.4978 5.12341 20.625 5.31594 20.625 5.5293V10.7939C20.627 12.0738 20.4078 13.3424 19.9747 14.5459C19.5511 15.7284 18.944 16.8367 18.1758 17.8301C17.4058 18.8406 16.4759 19.7211 15.4249 20.4336C14.7926 20.8615 14.116 21.2169 13.4083 21.4951C13.1493 21.5969 12.7324 21.7254 12.419 21.8174C12.1439 21.898 11.8515 21.8983 11.5762 21.8184C11.2798 21.7323 10.8944 21.6147 10.6524 21.5215C9.91813 21.2385 9.21637 20.8717 8.56157 20.4277C7.5105 19.7133 6.58063 18.8347 5.8106 17.8242C5.04821 16.8327 4.44514 15.7285 4.02544 14.5498C3.5923 13.3463 3.3712 12.0778 3.37505 10.7979V5.5293C3.37515 5.31595 3.50233 5.12339 3.69829 5.03906L7.96685 3.20605C9.25286 2.65207 10.6274 2.375 12 2.375ZM10.9532 12.5625L8.65532 10.2637L7.59478 11.3252L10.9532 14.6836L16.4336 9.20312L15.3731 8.14258L10.9532 12.5625Z" fill="black" fill-opacity="0.84"/>
</svg>
