<svg width="24" height="24" viewBox="0 0 24 24" fill="none" xmlns="http://www.w3.org/2000/svg">
<path d="M11.9999 3.25C13.2713 3.25 14.5413 3.50684 15.7352 4.01855L19.8749 5.7959V10.9199C19.8767 12.1133 19.672 13.2956 19.2684 14.417V14.418C18.8714 15.5265 18.3027 16.5651 17.5829 17.4961L17.5799 17.5C16.8589 18.4463 15.9875 19.2706 15.0038 19.9375C14.4177 20.3341 13.791 20.6638 13.1346 20.9219C12.9112 21.0097 12.5242 21.1299 12.2079 21.2227C12.0698 21.2631 11.9239 21.2627 11.786 21.2227C11.4871 21.1359 11.13 21.0275 10.9217 20.9473C10.2408 20.6848 9.58988 20.3445 8.98228 19.9326H8.98326C7.99858 19.2633 7.12775 18.4408 6.40709 17.4951L6.40514 17.4922L6.14439 17.1387C5.55203 16.3027 5.07639 15.3893 4.73228 14.4229L4.73131 14.4209L4.58971 13.9971C4.27978 13.0029 4.12173 11.9676 4.12486 10.9248V5.7959L8.26256 4.02051L8.26353 4.01953C9.45455 3.50649 10.728 3.25002 11.9999 3.25Z" stroke="black" stroke-width="1.5"/>
<path d="M12 7C13.1046 7 14 7.89543 14 9C14 9.83907 13.4826 10.5557 12.75 10.8525V16H11.25V10.8525C10.5174 10.5557 10 9.83907 10 9C10 7.89543 10.8954 7 12 7Z" fill="black"/>
</svg>
