<svg width="24" height="24" viewBox="0 0 24 24" fill="none" xmlns="http://www.w3.org/2000/svg">
<path d="M11.9999 3.125C13.2713 3.125 14.5413 3.38184 15.7352 3.89355L19.8749 5.6709V10.7949C19.8767 11.9883 19.672 13.1706 19.2684 14.292V14.293C18.8714 15.4015 18.3027 16.4401 17.5829 17.3711L17.5799 17.375C16.8589 18.3213 15.9875 19.1456 15.0038 19.8125C14.4177 20.2091 13.791 20.5388 13.1346 20.7969C12.9112 20.8847 12.5242 21.0049 12.2079 21.0977C12.0698 21.1381 11.9239 21.1377 11.786 21.0977C11.4871 21.0109 11.13 20.9025 10.9217 20.8223C10.2408 20.5598 9.58988 20.2195 8.98228 19.8076H8.98326C7.99858 19.1383 7.12775 18.3158 6.40709 17.3701L6.40514 17.3672L6.14439 17.0137C5.55203 16.1777 5.07639 15.2643 4.73228 14.2979L4.73131 14.2959L4.58971 13.8721C4.27978 12.8779 4.12173 11.8426 4.12486 10.7998V5.6709L8.26256 3.89551L8.26353 3.89453C9.45455 3.38149 10.728 3.12502 11.9999 3.125Z" stroke="#0F0F0F" stroke-width="1.5"/>
<path d="M12 15C12.5523 15 13 15.4477 13 16C13 16.5523 12.5523 17 12 17C11.4477 17 11 16.5523 11 16C11 15.4477 11.4477 15 12 15ZM12.75 14H11.25V7H12.75V14Z" fill="#0F0F0F"/>
</svg>
