<svg width="24" height="24" viewBox="0 0 24 24" fill="none" xmlns="http://www.w3.org/2000/svg">
<path d="M4.5 19C4.5 19.2761 4.72386 19.5 5 19.5H9V21H5L4.7959 20.9893C3.85435 20.8938 3.1062 20.1457 3.01074 19.2041L3 19V15H4.5V19ZM21 19C21 20.0357 20.2128 20.887 19.2041 20.9893L19 21H15V19.5H19C19.2761 19.5 19.5 19.2761 19.5 19V15H21V19ZM21 12.75H3V11.25H21V12.75ZM9 4.5H5C4.72386 4.5 4.5 4.72386 4.5 5V9H3V5C3 3.89543 3.89543 3 5 3H9V4.5ZM19 3C20.1046 3 21 3.89543 21 5V9H19.5V5C19.5 4.72386 19.2761 4.5 19 4.5H15V3H19Z" fill="black"/>
</svg>
