<svg width="24" height="24" viewBox="0 0 24 24" fill="none" xmlns="http://www.w3.org/2000/svg">
<mask id="path-1-inside-1_1_915" fill="white">
<path fill-rule="evenodd" clip-rule="evenodd" d="M17.9665 16.6985C19.2374 15.1466 20 13.1623 20 11C20 6.02944 15.9706 2 11 2C6.02944 2 2 6.02944 2 11C2 15.9706 6.02944 20 11 20C13.2681 20 15.3403 19.161 16.9231 17.7764L20.8704 21.7237L21.9311 20.663L17.9665 16.6985Z"/>
</mask>
<path d="M17.9665 16.6985L16.806 15.7481L15.9455 16.7988L16.9059 17.7591L17.9665 16.6985ZM16.9231 17.7764L17.9838 16.7157L16.9916 15.7235L15.9355 16.6474L16.9231 17.7764ZM20.8704 21.7237L19.8098 22.7844L20.8704 23.845L21.9311 22.7844L20.8704 21.7237ZM21.9311 20.663L22.9918 21.7237L24.0524 20.663L22.9918 19.6024L21.9311 20.663ZM20 11H18.5C18.5 12.8033 17.8654 14.4544 16.806 15.7481L17.9665 16.6985L19.127 17.6488C20.6094 15.8388 21.5 13.5214 21.5 11H20ZM11 2V3.5C15.1421 3.5 18.5 6.85786 18.5 11H20H21.5C21.5 5.20101 16.799 0.5 11 0.5V2ZM2 11H3.5C3.5 6.85786 6.85786 3.5 11 3.5V2V0.5C5.20101 0.5 0.5 5.20101 0.5 11H2ZM11 20V18.5C6.85786 18.5 3.5 15.1421 3.5 11H2H0.5C0.5 16.799 5.20101 21.5 11 21.5V20ZM16.9231 17.7764L15.9355 16.6474C14.6156 17.802 12.8912 18.5 11 18.5V20V21.5C13.6451 21.5 16.065 20.52 17.9107 18.9053L16.9231 17.7764ZM20.8704 21.7237L21.9311 20.663L17.9838 16.7157L16.9231 17.7764L15.8624 18.837L19.8098 22.7844L20.8704 21.7237ZM21.9311 20.663L20.8704 19.6024L19.8098 20.663L20.8704 21.7237L21.9311 22.7844L22.9918 21.7237L21.9311 20.663ZM17.9665 16.6985L16.9059 17.7591L20.8704 21.7237L21.9311 20.663L22.9918 19.6024L19.0272 15.6378L17.9665 16.6985Z" fill="black" fill-opacity="0.84" mask="url(#path-1-inside-1_1_915)"/>
</svg>
