<svg width="24" height="24" viewBox="0 0 24 24" fill="none" xmlns="http://www.w3.org/2000/svg">
<path fill-rule="evenodd" clip-rule="evenodd" d="M12.6191 3.5061C13.6822 2.44318 15.5 3.19611 15.5 4.69946V19.301C15.4998 20.8041 13.6822 21.5569 12.6191 20.4944L8.625 16.5002H3L2.89746 16.4954C2.42711 16.4475 2.05289 16.0731 2.00488 15.6028L2 15.5002V8.50025C2 7.94796 2.44772 7.50025 3 7.50025H8.625L12.6191 3.5061ZM13.7734 4.51099C13.7547 4.51431 13.7235 4.52284 13.6797 4.56665L9 9.24634V14.7542L13.6797 19.4338C13.7234 19.4775 13.7548 19.4862 13.7734 19.4895C13.8001 19.4941 13.8403 19.4927 13.8838 19.4749C13.9275 19.4567 13.9579 19.4297 13.9736 19.4075C13.9845 19.392 14 19.3634 14 19.301V4.69946C14 4.63726 13.9845 4.6086 13.9736 4.59302C13.958 4.57083 13.9275 4.54381 13.8838 4.52564C13.8403 4.50777 13.8001 4.50642 13.7734 4.51099ZM3.5 15.0002H7.5V9.00025H3.5V15.0002ZM21.8535 10.3538L20.207 12.0002L21.8535 13.6467L21.1465 14.3538L19.5 12.7073L17.8535 14.3538L17.1465 13.6467L18.793 12.0002L17.1465 10.3538L17.8535 9.64673L19.5 11.2932L21.1465 9.64673L21.8535 10.3538Z" fill="black"/>
</svg>
