<svg width="24" height="24" viewBox="0 0 24 24" fill="none" xmlns="http://www.w3.org/2000/svg">
<path fill-rule="evenodd" clip-rule="evenodd" d="M13.793 2.33189C14.4229 1.70199 15.5 2.14808 15.5 3.03892V20.9608C15.4998 21.8515 14.4229 22.2975 13.793 21.6678L8.625 16.4989L4 16.4999C2.89549 16.4999 2.00008 15.6044 2 14.4999V9.49986C2 8.39538 2.89552 7.49999 4 7.49986L8.625 7.49888L13.793 2.33189ZM20.4424 7.50963C21.2175 8.85223 21.6347 10.394 21.6348 11.9979C21.6348 13.5321 21.2535 15.0098 20.542 16.3104C20.4719 16.4384 20.2763 16.762 20.2695 16.7733L19 15.9745C19.0057 15.965 19.1854 15.6672 19.2676 15.5126C19.8321 14.4504 20.1348 13.2486 20.1348 11.9979C20.1347 10.6741 19.7959 9.40527 19.166 8.29869C19.1273 8.23063 19.001 8.0233 19.001 8.0233L20.2705 7.22447C20.2705 7.22447 20.3868 7.41342 20.4424 7.50963Z" fill="black" fill-opacity="0.84"/>
</svg>
