<svg width="24" height="24" viewBox="0 0 24 24" fill="none" xmlns="http://www.w3.org/2000/svg">
<path fill-rule="evenodd" clip-rule="evenodd" d="M12.6191 3.5061C13.6822 2.44303 15.5 3.19605 15.5 4.69945V19.301C15.4998 20.8041 13.6822 21.557 12.6191 20.4944L8.625 16.5002H3L2.89746 16.4954C2.42711 16.4475 2.05289 16.0731 2.00488 15.6028L2 15.5002V8.50024C2 7.94795 2.44772 7.50024 3 7.50024H8.625L12.6191 3.5061ZM13.7734 4.51098C13.7547 4.51428 13.7237 4.5226 13.6797 4.56664L9 9.24633V14.7541L13.6797 19.4338C13.7236 19.4777 13.7548 19.4862 13.7734 19.4895C13.8002 19.4941 13.8402 19.4928 13.8838 19.4748C13.9276 19.4567 13.9579 19.4297 13.9736 19.4075C13.9845 19.392 14 19.3635 14 19.301V4.69945C14 4.63712 13.9845 4.60857 13.9736 4.59301C13.958 4.57077 13.9276 4.54383 13.8838 4.52563C13.8401 4.50765 13.8002 4.50637 13.7734 4.51098ZM20.4424 7.51C21.2176 8.85271 21.6348 10.3943 21.6348 11.9983C21.6348 13.5324 21.2534 15.0093 20.542 16.3098C20.4712 16.4392 20.2719 16.7697 20.2695 16.7737L19 15.9748C19 15.9748 19.184 15.6702 19.2676 15.5129C19.8321 14.4508 20.1348 13.249 20.1348 11.9983C20.1348 10.6744 19.7958 9.4057 19.166 8.29906C19.1277 8.23175 19.0033 8.02751 19.001 8.02367L20.2705 7.22485C20.2705 7.22485 20.3869 7.41388 20.4424 7.51ZM3.5 15.0002H7.5V9.00024H3.5V15.0002Z" fill="black" fill-opacity="0.84"/>
</svg>
