<svg width="24" height="24" viewBox="0 0 24 24" fill="none" xmlns="http://www.w3.org/2000/svg">
<path d="M11.8066 3.16406C11.8859 3.00365 12.1141 3.00366 12.1934 3.16406L14.6768 8.19531L14.8594 8.56445L15.2666 8.62402L20.8193 9.43066C20.9964 9.45644 21.0666 9.67394 20.9385 9.79883L16.9209 13.7158L16.626 14.0029L16.6953 14.4092L17.6445 19.9395C17.6745 20.1156 17.4893 20.25 17.3311 20.167L12.3652 17.5557L12 17.3643L11.6348 17.5557L6.66895 20.167C6.51068 20.25 6.32551 20.1156 6.35547 19.9395L7.30469 14.4092L7.37402 14.0029L7.0791 13.7158L3.06152 9.79883C2.93339 9.67393 3.00362 9.45644 3.18066 9.43066L8.7334 8.62402L9.14062 8.56445L9.32324 8.19531L11.8066 3.16406Z" stroke="black" stroke-opacity="0.84" stroke-width="1.56818"/>
</svg>
