<svg width="24" height="24" viewBox="0 0 24 24" fill="none" xmlns="http://www.w3.org/2000/svg">
<path d="M5.5 2.75H18.5C19.1904 2.75 19.75 3.30964 19.75 4V20C19.75 20.6904 19.1904 21.25 18.5 21.25H5.5C4.80964 21.25 4.25 20.6904 4.25 20V4C4.25 3.30964 4.80964 2.75 5.5 2.75Z" stroke="black" stroke-width="1.5"/>
<path d="M15.6248 16.5001H7.99982V15.0001H16.0272L15.6248 16.5001ZM16.2254 9.92584L13.2928 12.8897C13.1836 13 13.0057 12.9999 12.8963 12.8897L12.2498 12.2393C12.233 12.2224 12.2194 12.2033 12.2078 12.1837L10.9862 10.9483L8.90119 13.0567L7.86115 12.0098L10.0946 9.75104C10.1061 9.73146 10.1198 9.71224 10.1365 9.69537L10.783 9.04498C10.8377 8.98995 10.9094 8.96188 10.9813 8.96198H10.992C11.0639 8.96192 11.1356 8.98994 11.1903 9.04498L11.8367 9.69537C11.8534 9.71213 11.8662 9.7316 11.8778 9.75104L13.0994 10.9864L15.1854 8.87799L16.2254 9.92584Z" fill="black"/>
</svg>
