<svg width="24" height="24" viewBox="0 0 24 24" fill="none" xmlns="http://www.w3.org/2000/svg">
<mask id="mask0_1_516" style="mask-type:luminance" maskUnits="userSpaceOnUse" x="8" y="3" width="14" height="18">
<path fill-rule="evenodd" clip-rule="evenodd" d="M10 3H22V21H10L8 15V8L10 3Z" fill="white"/>
</mask>
<g mask="url(#mask0_1_516)">
<path d="M6 6L21.7071 21.7071" stroke="#0F0F0F" stroke-width="1.5"/>
<path d="M6 18L22.4142 1.58578" stroke="#0F0F0F" stroke-width="1.5"/>
</g>
<mask id="path-4-inside-1_1_516" fill="white">
<path d="M6 14C8.20914 14 10 15.7909 10 18C10 20.2091 8.20914 22 6 22C3.79086 22 2 20.2091 2 18C2 15.7909 3.79086 14 6 14ZM6 15.5C4.61929 15.5 3.5 16.6193 3.5 18C3.5 19.3807 4.61929 20.5 6 20.5C7.38071 20.5 8.5 19.3807 8.5 18C8.5 16.6193 7.38071 15.5 6 15.5ZM6 2C8.20914 2 10 3.79086 10 6C10 8.20914 8.20914 10 6 10C3.79086 10 2 8.20914 2 6C2 3.79086 3.79086 2 6 2ZM6 3.5C4.61929 3.5 3.5 4.61929 3.5 6C3.5 7.38071 4.61929 8.5 6 8.5C7.38071 8.5 8.5 7.38071 8.5 6C8.5 4.61929 7.38071 3.5 6 3.5Z"/>
</mask>
<path d="M6 14V15.5C7.38071 15.5 8.5 16.6193 8.5 18H10H11.5C11.5 14.9624 9.03757 12.5 6 12.5V14ZM10 18H8.5C8.5 19.3807 7.38071 20.5 6 20.5V22V23.5C9.03757 23.5 11.5 21.0376 11.5 18H10ZM6 22V20.5C4.61929 20.5 3.5 19.3807 3.5 18H2H0.5C0.5 21.0376 2.96243 23.5 6 23.5V22ZM2 18H3.5C3.5 16.6193 4.61929 15.5 6 15.5V14V12.5C2.96243 12.5 0.5 14.9624 0.5 18H2ZM6 15.5V14C3.79086 14 2 15.7909 2 18H3.5H5C5 17.4477 5.44772 17 6 17V15.5ZM3.5 18H2C2 20.2091 3.79086 22 6 22V20.5V19C5.44772 19 5 18.5523 5 18H3.5ZM6 20.5V22C8.20914 22 10 20.2091 10 18H8.5H7C7 18.5523 6.55228 19 6 19V20.5ZM8.5 18H10C10 15.7909 8.20914 14 6 14V15.5V17C6.55228 17 7 17.4477 7 18H8.5ZM6 2V3.5C7.38071 3.5 8.5 4.61929 8.5 6H10H11.5C11.5 2.96243 9.03757 0.5 6 0.5V2ZM10 6H8.5C8.5 7.38071 7.38071 8.5 6 8.5V10V11.5C9.03757 11.5 11.5 9.03757 11.5 6H10ZM6 10V8.5C4.61929 8.5 3.5 7.38071 3.5 6H2H0.5C0.5 9.03757 2.96243 11.5 6 11.5V10ZM2 6H3.5C3.5 4.61929 4.61929 3.5 6 3.5V2V0.5C2.96243 0.5 0.5 2.96243 0.5 6H2ZM6 3.5V2C3.79086 2 2 3.79086 2 6H3.5H5C5 5.44772 5.44772 5 6 5V3.5ZM3.5 6H2C2 8.20914 3.79086 10 6 10V8.5V7C5.44772 7 5 6.55228 5 6H3.5ZM6 8.5V10C8.20914 10 10 8.20914 10 6H8.5H7C7 6.55228 6.55228 7 6 7V8.5ZM8.5 6H10C10 3.79086 8.20914 2 6 2V3.5V5C6.55228 5 7 5.44772 7 6H8.5Z" fill="#0F0F0F" mask="url(#path-4-inside-1_1_516)"/>
</svg>
