<svg width="24" height="24" viewBox="0 0 24 24" fill="none" xmlns="http://www.w3.org/2000/svg">
<path d="M11.3758 3.90802C11.7613 3.68663 12.2354 3.68658 12.6209 3.90802L21.0125 8.72931L12.6229 13.5496C12.2374 13.7711 11.7633 13.771 11.3778 13.5496L2.9852 8.72833L11.3758 3.90802Z" stroke="black" stroke-width="1.5"/>
<path d="M18.25 16.125C18.2498 16.5616 18.0216 16.9668 17.6484 17.1934L13.168 19.9141C12.4504 20.3497 11.5496 20.3497 10.832 19.9141L6.35156 17.1934C5.97837 16.9668 5.75017 16.5616 5.75 16.125V10.292L11.3799 13.5098C11.7641 13.7292 12.2359 13.7292 12.6201 13.5098L18.25 10.292V16.125Z" stroke="black" stroke-width="1.5"/>
<path d="M21.25 8.875V13.625" stroke="black" stroke-width="1.5"/>
</svg>
