<svg width="24" height="24" viewBox="0 0 24 24" fill="none" xmlns="http://www.w3.org/2000/svg">
<circle cx="10" cy="6.5" r="3.25" stroke="#0F0F0F" stroke-width="1.5"/>
<path d="M13.1611 12.001L13.0059 12.1562C12.6193 12.5562 12.2871 13.0084 12.0176 13.5H6.25C4.78784 13.5 3.59167 14.6415 3.50488 16.082L3.5 16.25L3.49902 19.5L9 19.499V19.5H12.0176C12.2871 19.9916 12.6193 20.4438 13.0059 20.8438L13.1621 21H3C2.44772 21 2 20.5523 2 20V16.25C2 13.9719 3.79243 12.1124 6.04395 12.0049L6.25 12L13.1611 12.001ZM14 19.7119C13.5578 19.2302 13.2142 18.6567 13 18.0234V14.9785C13.1875 14.424 13.4736 13.9151 13.8389 13.4736L14 13.2881V19.7119Z" fill="#0F0F0F"/>
<circle cx="17.5" cy="16.5" r="4" stroke="black" stroke-width="1.5"/>
<path d="M18.2832 16.5L17.5 17.2832L16.7168 16.5L17.5 15.7168L18.2832 16.5Z" stroke="black" stroke-width="1.125"/>
</svg>
