<svg width="24" height="24" viewBox="0 0 24 24" fill="none" xmlns="http://www.w3.org/2000/svg">
<path d="M15.5 12C18.2614 12 20.5 14.2386 20.5 17V20C20.5 20.5523 20.0523 21 19.5 21H4.5C3.94772 21 3.5 20.5523 3.5 20V17C3.5 14.2386 5.73858 12 8.5 12H15.5ZM8.5 13.5C6.567 13.5 5 15.067 5 17V19.5H19V17C19 15.067 17.433 13.5 15.5 13.5H8.5ZM12 2.5C14.2091 2.5 16 4.29086 16 6.5C16 8.70914 14.2091 10.5 12 10.5C9.79086 10.5 8 8.70914 8 6.5C8 4.29086 9.79086 2.5 12 2.5ZM12 4C10.6193 4 9.5 5.11929 9.5 6.5C9.5 7.88071 10.6193 9 12 9C13.3807 9 14.5 7.88071 14.5 6.5C14.5 5.11929 13.3807 4 12 4Z" fill="#0F0F0F"/>
</svg>
