<svg width="24" height="24" viewBox="0 0 24 24" fill="none" xmlns="http://www.w3.org/2000/svg">
<path d="M17.5989 11.002C20.3147 11.0547 22.5003 13.2716 22.5003 16V19C22.5003 19.5522 22.0524 19.9999 21.5003 20H21.0003V16.25C21.0003 13.9114 19.6032 11.9004 17.5989 11.002ZM14.0003 1.5C16.2093 1.50015 18.0003 3.29095 18.0003 5.5C18.0003 7.02884 17.1416 8.35605 15.8811 9.0293C16.2749 8.27196 16.5003 7.41276 16.5003 6.5C16.5003 4.31951 15.2315 2.43457 13.3919 1.54492C13.5901 1.51469 13.7936 1.5 14.0003 1.5Z" fill="#0F0F0F"/>
<path fill-rule="evenodd" clip-rule="evenodd" d="M14.5 12C17.2614 12 19.5 14.2386 19.5 17V20C19.5 20.5523 19.0523 21 18.5 21H3.5C2.94772 21 2.5 20.5523 2.5 20V17C2.5 14.2386 4.73858 12 7.5 12H14.5ZM7.5 13.5C5.567 13.5 4 15.067 4 17V19.5H18V17C18 15.067 16.433 13.5 14.5 13.5H7.5ZM11 2.5C13.2091 2.5 15 4.29086 15 6.5C15 8.70914 13.2091 10.5 11 10.5C8.79086 10.5 7 8.70914 7 6.5C7 4.29086 8.79086 2.5 11 2.5ZM11 4C9.61929 4 8.5 5.11929 8.5 6.5C8.5 7.88071 9.61929 9 11 9C12.3807 9 13.5 7.88071 13.5 6.5C13.5 5.11929 12.3807 4 11 4Z" fill="#0F0F0F"/>
</svg>
