<svg width="24" height="24" viewBox="0 0 24 24" fill="none" xmlns="http://www.w3.org/2000/svg">
<path d="M10 3C12.2091 3 14 4.79086 14 7C14 9.20914 12.2091 11 10 11C7.79086 11 6 9.20914 6 7C6 4.79086 7.79086 3 10 3ZM10 4.5C8.61929 4.5 7.5 5.61929 7.5 7C7.5 8.38071 8.61929 9.5 10 9.5C11.3807 9.5 12.5 8.38071 12.5 7C12.5 5.61929 11.3807 4.5 10 4.5Z" fill="#0F0F0F"/>
<path d="M17.5 11.75C20.1234 11.75 22.25 13.8766 22.25 16.5C22.25 19.1234 20.1234 21.25 17.5 21.25C14.8766 21.25 12.75 19.1234 12.75 16.5C12.75 13.8766 14.8766 11.75 17.5 11.75ZM14.7334 14.7939C14.4269 15.2898 14.25 15.8742 14.25 16.5C14.25 18.2949 15.7051 19.75 17.5 19.75C18.1256 19.75 18.7092 19.572 19.2051 19.2656L14.7334 14.7939ZM17.5 13.25C16.8742 13.25 16.2898 13.4269 15.7939 13.7334L20.2656 18.2051C20.572 17.7092 20.75 17.1256 20.75 16.5C20.75 14.7051 19.2949 13.25 17.5 13.25Z" fill="black"/>
</svg>
